<svg width="279" height="272" viewBox="0 0 279 272" fill="none" xmlns="http://www.w3.org/2000/svg">
<path d="M41.2398 97.6633C63.7808 91.6509 89.8311 105.983 108.77 35.698C127.708 -34.5865 254.357 25.4332 236.797 83.9294C219.237 142.426 227.184 150.987 238.393 166.587C256.486 191.766 232.008 287.903 127.711 253.823C23.4135 219.743 -43.6346 120.299 41.2398 97.6633Z" fill="#E6F0F5"/>
<path d="M192.364 125.64H278.67C278.67 125.64 274.892 111.954 263.358 116.326C263.358 116.326 261.53 103.081 249.217 99.7692C246.071 98.9466 242.758 98.9002 239.588 99.6344C234.24 100.837 224.255 104.334 217.819 114.233C217.819 114.233 209.666 107.77 202.121 119.556C202.121 119.556 193.173 118.417 192.378 126.209" fill="url(#paint0_linear_6_391)"/>
<path d="M0 214.656H66.7821C66.7821 214.656 63.8554 204.068 54.9369 207.451C54.9369 207.451 53.5241 197.204 43.9964 194.643C41.5626 194.004 38.9992 193.968 36.5466 194.536C32.4066 195.467 24.6828 198.173 19.7021 205.833C19.7021 205.833 13.3963 200.833 7.54824 209.951C7.54824 209.951 0.630572 209.068 0.0106426 215.096" fill="url(#paint1_linear_6_391)"/>
<path d="M107.969 16.7859C107.969 16.9741 107.969 17.1547 107.969 17.3429C107.969 17.6252 107.942 17.905 107.918 18.1847C107.677 21.0033 106.689 23.7168 105.047 26.069C104.88 26.3233 104.701 26.5497 104.515 26.7837C102.232 29.7218 99.0068 31.8655 95.3305 32.8876C94.7187 33.0598 94.0968 33.1974 93.4681 33.2997C89.1791 34.0191 84.7635 33.1911 81.0768 30.9761C77.3901 28.7611 74.6948 25.3167 73.5132 21.3105C73.3802 20.8501 73.2632 20.3822 73.17 19.904C72.9668 18.876 72.8653 17.8321 72.8667 16.7859C72.8667 16.5926 72.8667 16.407 72.8667 16.2162C72.8667 15.9619 72.888 15.7075 72.9093 15.4532C73.0747 13.4544 73.6154 11.5005 74.5057 9.68497C74.6387 9.43064 74.7717 9.15087 74.926 8.89145C76.0272 6.91511 77.5317 5.1699 79.3507 3.75904C79.9001 3.32989 80.4778 2.93486 81.0801 2.5764C83.8745 0.888482 87.1134 -0.00506016 90.419 2.15552e-05C90.7436 2.15552e-05 91.0708 2.15547e-05 91.3928 0.0229114C92.0284 0.057318 92.6617 0.124389 93.2898 0.223833C97.3918 0.876098 101.119 2.89873 103.807 5.93163C106.495 8.96454 107.969 12.8109 107.969 16.7859Z" fill="url(#paint2_linear_6_391)"/>
<path d="M95.5012 11.0356C90.3183 9.25525 84.1136 10.4531 81.1337 11.0356C79.6305 11.323 78.7392 10.9872 78.2336 10.6083C81.9825 4.99265 87.0297 1.52611 93.2929 0.223932C92.6647 0.124488 92.0315 0.0574169 91.3958 0.0230103C84.7708 1.92287 80.4659 6.10408 77.7387 10.0767C77.6984 10.0149 77.6628 9.95027 77.6323 9.88345L77.6164 9.8453C76.9672 8.59399 79.258 4.92398 81.0752 2.57141C80.4729 2.92987 79.8952 3.3249 79.3458 3.75406C77.941 5.78871 76.2382 8.71606 76.9698 10.1403C77.0653 10.3357 77.1879 10.5179 77.3343 10.682C77.1694 10.9364 77.0124 11.1907 76.8607 11.445C76.7357 11.6536 76.6133 11.8596 76.4962 12.0631C75.9103 11.0391 75.3871 9.98359 74.9291 8.90173C74.7801 9.15606 74.6418 9.42819 74.5087 9.69524C74.9824 10.7487 75.5153 11.7768 76.1051 12.7752C75.6581 13.6018 75.259 14.4207 74.8998 15.2244C74.2329 15.1164 73.5474 15.1978 72.9283 15.4584C72.907 15.7127 72.8937 15.9671 72.8857 16.2214C73.4189 15.9513 74.0216 15.8322 74.6231 15.878C74.0614 17.1928 73.5755 18.536 73.1678 19.9016C73.2609 20.3797 73.378 20.8477 73.511 21.308C73.9782 19.5291 74.5748 17.7836 75.2963 16.0841C75.988 16.4783 76.4883 17.3557 76.7862 18.7113C78.5822 26.8499 84.0764 31.6644 93.4897 33.2972C94.1185 33.1949 94.7404 33.0574 95.3522 32.8852C85.1939 31.5907 79.3245 26.8652 77.494 18.5689C77.1428 16.9691 76.4989 15.9264 75.5836 15.4508C75.8736 14.7997 76.1929 14.1359 76.5468 13.4644C78.8546 17.2345 82.0755 20.4198 85.9388 22.7526C90.5418 25.4791 95.9482 26.8448 102.089 26.8448C102.887 26.8448 103.709 26.8219 104.537 26.7736C104.715 26.5396 104.893 26.3031 105.069 26.0589C97.8186 26.5676 91.5395 25.2629 86.33 22.1829C81.8069 19.5124 78.8349 15.8882 76.9379 12.7523C77.1153 12.4234 77.3077 12.0927 77.5153 11.7604C77.6403 11.5569 77.7654 11.356 77.8931 11.1602C78.5449 11.6307 79.6118 12.0071 81.304 11.6867C84.2307 11.1271 90.297 9.96738 95.3149 11.6867C95.4027 11.7095 102.334 13.6806 107.94 18.1848C107.964 17.9051 107.982 17.6253 107.99 17.343C102.302 12.971 95.5704 11.0534 95.5012 11.0356Z" fill="#0A0E1E"/>
<path d="M133.165 70.1956L135.485 58.1657C135.485 58.1657 145.42 51.8328 139.79 44.2359C139.79 44.2359 136.065 37.898 127.445 39.1646C127.445 39.1646 110.646 50.5688 120.913 59.1143L117.507 66.6349L133.165 70.1956Z" fill="url(#paint3_linear_6_391)"/>
<path d="M171.981 236.236L160.455 249.825L145.92 239.865L104.563 210.889C102.534 209.471 100.869 207.631 99.6933 205.508C98.5175 203.385 97.8618 201.034 97.7758 198.633L97.4405 189.146L96.9829 176.145L125.186 175.352L125.54 183.816L126.016 195.212L157.826 223.743L171.981 236.236Z" fill="url(#paint4_linear_6_391)"/>
<path d="M158.489 249.601L167.4 255.224L164.188 272L187.267 245.519L171.604 235.526L158.489 249.601Z" fill="url(#paint5_linear_6_391)"/>
<path d="M221.003 198.992L213.144 215.241L150.693 192.722C148 191.72 145.658 190.008 143.94 187.786L139.34 181.847L132.444 172.928L153.154 158.151L157.097 164.044L162.871 172.691L221.003 198.992Z" fill="url(#paint6_linear_6_391)"/>
<path opacity="0.2" d="M125.55 183.816C114.894 188.811 103.807 189.36 97.4405 189.157L96.9829 176.155L125.186 175.362L125.55 183.816Z" fill="black"/>
<path opacity="0.2" d="M157.097 164.044C152.638 172.724 143.98 178.953 139.34 181.829L132.444 172.91L153.154 158.133L157.097 164.044Z" fill="black"/>
<path d="M211.223 215.17L221.28 218.593L222.363 235.613L238.141 204.625L220.434 198.503L211.223 215.17Z" fill="url(#paint7_linear_6_391)"/>
<path d="M137.555 126.657L156.778 160.257C156.778 160.257 146.891 174.006 133.594 177.45L100.82 129.539L137.555 126.657Z" fill="url(#paint8_linear_6_391)"/>
<path d="M136.491 126.657C136.491 126.657 132.234 158.194 127.413 179.589C127.413 179.589 109.129 187.002 94.7241 181.443L98.6033 128.216L136.491 126.657Z" fill="url(#paint9_linear_6_391)"/>
<path d="M125.476 68.4635L110.968 81.1801L98.5689 70.9585L91.3213 64.9894C87.3916 61.8128 88.9028 58.0563 88.9028 58.0563L99.4815 31.0895C102.201 29.6449 104.005 26.86 104.005 26.86C102.493 23.6808 104.609 19.0596 104.609 19.0596C100.982 12.7013 104.609 11.2593 104.609 11.2593L107.631 16.2391C107.668 12.7113 106.459 9.2747 104.199 6.48546C103.595 5.61819 104.5 4.75092 104.5 4.75092L108.224 9.01606L110.643 14.7945L110.039 19.0596L107.038 58.0639C109.557 59.2694 113.179 61.2736 116.547 63.2039C121.262 65.91 125.476 68.4635 125.476 68.4635Z" fill="url(#paint10_linear_6_391)"/>
<path opacity="0.2" d="M125.476 68.4636L110.967 81.1801L98.5688 70.9586C102.765 68.428 109.092 65.1827 116.547 63.1964C121.261 65.9101 125.476 68.4636 125.476 68.4636Z" fill="black"/>
<path d="M128.647 87.9657C128.647 87.9657 119.883 98.935 110.512 99.8124L100.402 119.577C100.196 119.977 99.9271 120.346 99.6037 120.668L71.3716 149.074C71.3716 149.074 71.675 156.297 76.8127 158.609C76.8127 158.609 72.8829 163.807 68.6525 156.297L65.63 160.341C65.63 160.341 66.2339 169.008 62.6075 169.876C62.6075 169.876 62.3042 172.765 58.6777 173.055C58.485 173.25 58.2472 173.4 57.9833 173.492C56.1608 174.199 55.0912 172.528 55.61 170.715L58.6777 157.177L63.8154 141.286L87.9953 104.014C87.9953 104.014 104.015 72.5227 109.153 69.6335C109.153 69.6335 113.676 65.0097 120.942 67.8989C120.942 67.8862 130.01 71.0653 128.647 87.9657Z" fill="url(#paint11_linear_6_391)"/>
<path d="M133.636 67.0189L140.889 76.5538C140.889 76.5538 145.412 82.9121 139.982 95.6287L141.86 130.009C141.86 130.009 129.32 134.712 116.802 134.763C109.352 134.796 97.6455 131.739 97.6455 131.739L98.9758 120.945L110.342 99.3801C110.342 99.3801 123.337 96.4909 124.244 82.3399C124.244 82.3399 126.399 65.0937 112.024 67.7947C112.024 67.7947 115.78 66.1618 118.803 64.997C118.803 64.997 124.547 66.1542 128.778 67.5988C128.799 67.5988 131.821 68.7535 133.636 67.0189Z" fill="url(#paint12_linear_6_391)"/>
<path d="M84.1692 110.667C85.6805 113.231 90.3872 119.716 99.5398 120.286C99.9173 120.311 100.294 120.227 100.621 120.046C100.949 119.864 101.212 119.594 101.378 119.269L105.561 111.036C105.612 110.937 105.641 110.829 105.644 110.719C105.647 110.608 105.626 110.499 105.581 110.397C105.535 110.295 105.467 110.204 105.382 110.13C105.296 110.056 105.195 110.001 105.085 109.968C102.879 109.279 96.8632 106.916 90.2142 100.1C90.1491 100.034 90.0686 99.9835 89.9794 99.9527C89.8902 99.9219 89.7947 99.9115 89.7005 99.9224C89.6063 99.9333 89.5161 99.9651 89.4371 100.015C89.3581 100.066 89.2926 100.133 89.2457 100.212L84.1772 108.691C83.9969 108.992 83.9013 109.332 83.8999 109.678C83.8985 110.025 83.9913 110.366 84.1692 110.667Z" fill="url(#paint13_linear_6_391)"/>
<path d="M63.8715 141.332C64.5686 142.914 67.0483 147.848 71.3213 149.089C71.4727 149.132 71.6337 149.135 71.7864 149.096C71.9391 149.056 72.0774 148.978 72.186 148.868L77.8026 143.245C77.8438 143.203 77.8738 143.152 77.89 143.097C77.9062 143.042 77.9081 142.984 77.8955 142.928C77.8829 142.872 77.8563 142.819 77.8179 142.775C77.7794 142.731 77.7304 142.697 77.6749 142.675C75.9827 142.029 70.5151 139.679 67.9902 135.477C67.9493 135.407 67.89 135.349 67.8181 135.307C67.7462 135.266 67.6643 135.243 67.5804 135.241C67.4966 135.24 67.4137 135.259 67.3399 135.297C67.2662 135.335 67.2042 135.391 67.1601 135.46L63.9673 140.404C63.875 140.54 63.8182 140.695 63.8015 140.857C63.7849 141.018 63.8089 141.181 63.8715 141.332Z" fill="url(#paint14_linear_6_391)"/>
<path d="M133.032 46.5427C134.027 46.4791 136.757 47.56 135.693 49.5947C135.693 49.5947 134.628 51.375 131.302 52.2652C131.302 52.2652 132.367 56.8431 135.559 58.1148C135.559 58.1148 145.404 54.0455 144.34 47.1785C144.34 47.1785 147.798 46.4155 144.872 41.5832C141.945 36.7509 135.003 34.5179 132.899 31.41C131.435 29.2481 127.045 29.121 126.247 33.4446C125.966 36.5258 126.97 39.5885 129.041 41.9647C129.573 42.5955 131.036 44.3809 131.036 44.3809L129.307 46.2884L130.504 47.1785C130.504 47.1785 132.38 46.5834 133.032 46.5427Z" fill="url(#paint15_linear_6_391)"/>
<path d="M62.9242 161.246H62.126V169.893H62.9242V161.246Z" fill="#161C3E"/>
<path d="M59.0703 163.381L58.271 173.046L59.0667 173.106L59.866 163.441L59.0703 163.381Z" fill="#161C3E"/>
<path d="M71.6704 152.167L65.269 160.118L65.9016 160.584L72.3029 152.632L71.6704 152.167Z" fill="#161C3E"/>
<defs>
<linearGradient id="paint0_linear_6_391" x1="192.364" y1="112.664" x2="278.67" y2="112.664" gradientUnits="userSpaceOnUse">
<stop stop-color="#9DCEF3"/>
<stop offset="1" stop-color="#DDEFFD"/>
</linearGradient>
<linearGradient id="paint1_linear_6_391" x1="70.5256" y1="204.027" x2="-1.28168" y2="205.714" gradientUnits="userSpaceOnUse">
<stop stop-color="#9DCEF3"/>
<stop offset="1" stop-color="#DDEFFD"/>
</linearGradient>
<linearGradient id="paint2_linear_6_391" x1="72.8667" y1="16.7757" x2="107.969" y2="16.7757" gradientUnits="userSpaceOnUse">
<stop stop-color="#ED5C61"/>
<stop offset="1" stop-color="#AF2251"/>
</linearGradient>
<linearGradient id="paint3_linear_6_391" x1="130.872" y1="69.8802" x2="127.952" y2="41.113" gradientUnits="userSpaceOnUse">
<stop stop-color="#ED6263"/>
<stop offset="1" stop-color="#FFA9A9"/>
</linearGradient>
<linearGradient id="paint4_linear_6_391" x1="96.9829" y1="212.588" x2="171.981" y2="212.588" gradientUnits="userSpaceOnUse">
<stop stop-color="#ED6263"/>
<stop offset="1" stop-color="#FFA9A9"/>
</linearGradient>
<linearGradient id="paint5_linear_6_391" x1="158.489" y1="253.762" x2="187.267" y2="253.762" gradientUnits="userSpaceOnUse">
<stop stop-color="#002452"/>
<stop offset="1" stop-color="#001328"/>
</linearGradient>
<linearGradient id="paint6_linear_6_391" x1="132.444" y1="186.69" x2="221.003" y2="186.69" gradientUnits="userSpaceOnUse">
<stop stop-color="#ED6263"/>
<stop offset="1" stop-color="#FFA9A9"/>
</linearGradient>
<linearGradient id="paint7_linear_6_391" x1="211.223" y1="217.059" x2="238.141" y2="217.059" gradientUnits="userSpaceOnUse">
<stop stop-color="#002452"/>
<stop offset="1" stop-color="#001328"/>
</linearGradient>
<linearGradient id="paint8_linear_6_391" x1="153.176" y1="173.525" x2="116.218" y2="124.179" gradientUnits="userSpaceOnUse">
<stop stop-color="#002452"/>
<stop offset="1" stop-color="#001328"/>
</linearGradient>
<linearGradient id="paint9_linear_6_391" x1="122.836" y1="123.028" x2="107.407" y2="176.067" gradientUnits="userSpaceOnUse">
<stop stop-color="#3BACA0"/>
<stop offset="1" stop-color="#58C6B6"/>
</linearGradient>
<linearGradient id="paint10_linear_6_391" x1="109.11" y1="76.5029" x2="99.325" y2="13.7107" gradientUnits="userSpaceOnUse">
<stop stop-color="#ED6263"/>
<stop offset="1" stop-color="#FFA9A9"/>
</linearGradient>
<linearGradient id="paint11_linear_6_391" x1="55.4796" y1="120.296" x2="128.788" y2="120.296" gradientUnits="userSpaceOnUse">
<stop stop-color="#ED6263"/>
<stop offset="1" stop-color="#FFA9A9"/>
</linearGradient>
<linearGradient id="paint12_linear_6_391" x1="97.6668" y1="99.8811" x2="142.661" y2="99.8811" gradientUnits="userSpaceOnUse">
<stop stop-color="#404AA9"/>
<stop offset="1" stop-color="#7284D3"/>
</linearGradient>
<linearGradient id="paint13_linear_6_391" x1="83.9005" y1="110.105" x2="105.643" y2="110.105" gradientUnits="userSpaceOnUse">
<stop stop-color="#002452"/>
<stop offset="1" stop-color="#001328"/>
</linearGradient>
<linearGradient id="paint14_linear_6_391" x1="63.7864" y1="142.182" x2="77.8931" y2="142.182" gradientUnits="userSpaceOnUse">
<stop stop-color="#002452"/>
<stop offset="1" stop-color="#001328"/>
</linearGradient>
<linearGradient id="paint15_linear_6_391" x1="126.189" y1="44.0274" x2="146.048" y2="44.0274" gradientUnits="userSpaceOnUse">
<stop stop-color="#002452"/>
<stop offset="1" stop-color="#001328"/>
</linearGradient>
</defs>
</svg>
