<svg width="270" height="276" viewBox="0 0 270 276" fill="none" xmlns="http://www.w3.org/2000/svg">
<path d="M162.058 137.331L164.533 132.809C164.687 132.526 164.733 132.195 164.66 131.88C164.588 131.565 164.403 131.29 164.142 131.107C164.142 131.107 159.192 126.109 156.802 123.912C155.32 122.553 152.541 118.827 155.677 115.844C158.814 112.861 208.091 47.0235 208.091 47.0235L245.497 17.9193C246.029 17.5065 246.409 16.9234 246.577 16.2633L247.129 14.099L237.915 11.73L202.801 44.3049L138.206 122.716L143.584 124.527L162.058 137.331Z" fill="url(#paint0_linear_6_1138)"/>
<path d="M141.896 123.446C141.896 123.446 129.17 112.309 111.746 134.647C101.295 148.051 103.471 155.512 92.8754 166.716C82.0371 178.176 67.7181 182.126 54.2721 203.056C42.8354 220.86 33.0006 243.487 48.3299 253.6C63.6591 263.713 106.33 219.452 106.33 219.452L132.694 171.564L147.447 151.8L152.077 136.889L143.584 124.524L141.896 123.446Z" fill="url(#paint1_linear_6_1138)"/>
<path d="M143.584 124.527L162.058 137.331C162.058 137.331 169.153 160.411 137.448 190.567C135.054 192.841 133.398 195.76 132.322 198.913C119.198 237.372 106.119 256.271 73.1091 265.751C72.0154 266.02 70.8651 265.903 69.8444 265.42C64.4129 262.575 59.3144 261.22 48.3389 253.603C58.0409 255.105 73.8629 251.362 93.3389 229.798C108.279 213.238 105.37 195.408 116.545 180.902C127.154 167.132 136.906 164.022 145.624 144.67C151.083 132.538 143.584 124.527 143.584 124.527Z" fill="url(#paint2_linear_6_1138)"/>
<path d="M65.5203 197.766L77.3328 211.007L74.0432 213.608L71.9845 212.672C71.9845 212.672 66.5508 215.246 63.5493 212.936C60.5478 210.627 61.6323 206.71 61.6323 206.71L65.5203 197.766Z" fill="#1A1B35"/>
<path d="M106.973 171.353C111.799 164.497 113.893 157.601 111.649 155.95C109.405 154.299 103.672 158.519 98.8457 165.375C94.0189 172.231 91.9252 179.128 94.1694 180.779C96.4136 182.43 102.146 178.21 106.973 171.353Z" fill="#1A1B35"/>
<path d="M108.584 172.221C114.366 164.007 116.609 155.551 113.593 153.332C110.577 151.114 103.445 155.974 97.6631 164.187C91.8811 172.4 89.6386 180.857 92.6544 183.075C95.6702 185.293 102.802 180.434 108.584 172.221Z" stroke="#774C1D" stroke-miterlimit="10"/>
<path d="M111.476 152.196L64.5864 200.358" stroke="#FFFBF8" stroke-miterlimit="10"/>
<path d="M110.299 152.888L114.988 156.278L204.919 46.5267L246.58 14.95C246.784 14.795 246.945 14.588 247.047 14.3496C247.148 14.1111 247.187 13.8496 247.159 13.5911C247.131 13.3326 247.037 13.086 246.887 12.8761C246.737 12.6662 246.535 12.5002 246.303 12.3947L240.957 9.96819C240.076 9.56769 239.104 9.42467 238.149 9.555C237.194 9.68534 236.293 10.0839 235.546 10.7065L200.342 40.0384L198.74 43.7184L110.299 152.888Z" fill="#1A1B35"/>
<path d="M210.64 31.4778L206.725 34.7162L205.742 33.58C205.583 33.3965 205.464 33.1805 205.393 32.9463C205.323 32.7121 205.302 32.4652 205.332 32.222C205.362 31.9788 205.442 31.745 205.568 31.5362C205.693 31.3273 205.861 31.1482 206.059 31.0109L207.544 29.9851C207.902 29.7383 208.339 29.6413 208.765 29.714C209.191 29.7868 209.573 30.0237 209.833 30.3761L210.64 31.4778Z" fill="#DE8641"/>
<path d="M219.546 24.0281L216.326 26.7099L214.828 24.7296C214.688 24.5451 214.587 24.3329 214.531 24.1065C214.475 23.8802 214.466 23.6445 214.504 23.4142C214.541 23.1839 214.625 22.9641 214.75 22.7686C214.874 22.573 215.037 22.4059 215.228 22.2778L216.178 21.6384C216.367 21.5117 216.579 21.4257 216.801 21.3858C217.024 21.3459 217.252 21.3529 217.471 21.4063C217.691 21.4597 217.898 21.5584 218.079 21.6964C218.26 21.8344 218.412 22.0088 218.525 22.2088L219.546 24.0281Z" fill="#DE8641"/>
<path d="M230.175 15.1662L226.773 18.032L225.635 16.8038C225.472 16.6282 225.351 16.4167 225.282 16.1858C225.212 15.9548 225.195 15.7106 225.232 15.4719C225.269 15.2332 225.36 15.0064 225.496 14.809C225.633 14.6117 225.812 14.449 226.019 14.3336L227.25 13.6436C227.554 13.4747 227.905 13.4153 228.245 13.475C228.586 13.5346 228.897 13.7099 229.129 13.9725L230.175 15.1662Z" fill="#DE8641"/>
<path d="M227.25 29.5941L228.375 30.2128C228.525 30.296 228.653 30.4162 228.746 30.5625C228.839 30.7088 228.894 30.8765 228.908 31.0505C228.921 31.2244 228.892 31.399 228.822 31.5584C228.753 31.7178 228.646 31.8569 228.51 31.9631L225.968 33.9618C225.722 34.156 225.421 34.2644 225.111 34.271C224.8 34.2776 224.496 34.1821 224.242 33.9986L222.804 32.9636L227.25 29.5941Z" fill="#DE8641"/>
<path d="M238.795 20.8587L239.906 21.4751C240.056 21.5581 240.184 21.6781 240.277 21.8243C240.37 21.9705 240.426 22.1382 240.44 22.3121C240.454 22.4861 240.424 22.6608 240.355 22.8203C240.286 22.9798 240.179 23.119 240.043 23.2254L237.501 25.2241C237.255 25.4179 236.955 25.5263 236.644 25.5333C236.334 25.5404 236.029 25.4457 235.775 25.2632L234.337 24.2282L238.795 20.8587Z" fill="#DE8641"/>
<path d="M217.485 37.03L218.439 37.72C218.612 37.8437 218.752 38.0088 218.849 38.2008C218.945 38.3928 218.994 38.6059 218.991 38.8216C218.988 39.0373 218.933 39.249 218.832 39.4382C218.731 39.6275 218.586 39.7885 218.41 39.9073L215.804 41.6553C215.552 41.8239 215.263 41.9252 214.964 41.9502C214.664 41.9751 214.362 41.9227 214.087 41.7979L212.359 41.0136L217.485 37.03Z" fill="#DE8641"/>
<path d="M111.476 153.737L65.7246 202.039" stroke="#FFFBF8" stroke-miterlimit="10"/>
<path d="M112.525 154.496L66.9575 203.732" stroke="#FFFBF8" stroke-miterlimit="10"/>
<path d="M113.756 155.386L68.335 205.583" stroke="#FFFBF8" stroke-miterlimit="10"/>
<path d="M114.989 156.278L69.8672 207.616" stroke="#FFFBF8" stroke-miterlimit="10"/>
<path d="M64.5365 200.029C64.424 200.291 69.9838 207.607 69.9838 207.607L69.2278 209.091L63.7378 201.871L64.5365 200.029Z" fill="#F9BF87"/>
<defs>
<linearGradient id="paint0_linear_6_1138" x1="166.206" y1="58.2882" x2="218.473" y2="81.0103" gradientUnits="userSpaceOnUse">
<stop stop-color="#57232B"/>
<stop offset="1" stop-color="#913F4B"/>
</linearGradient>
<linearGradient id="paint1_linear_6_1138" x1="53.2201" y1="247.375" x2="143.54" y2="131.467" gradientUnits="userSpaceOnUse">
<stop stop-color="#DE8542"/>
<stop offset="1" stop-color="#D87C3A"/>
</linearGradient>
<linearGradient id="paint2_linear_6_1138" x1="79.2292" y1="182.5" x2="138.421" y2="208.233" gradientUnits="userSpaceOnUse">
<stop stop-color="#311E24"/>
<stop offset="1" stop-color="#5D2B33"/>
</linearGradient>
</defs>
</svg>
