<svg width="427" height="361" viewBox="0 0 427 361" fill="none" xmlns="http://www.w3.org/2000/svg">
<path d="M266.792 297.858C197.206 267.916 187.515 267.827 123.058 290.449C53.2316 314.973 12.7309 296.349 9.15143 262.025C3.0401 203.561 137.568 217.521 126.214 143.076C117.846 88.2269 155.898 62.3689 206.124 54.6347C255.822 46.9809 290.482 62.1949 284.729 114.732C281.546 143.79 270.494 162.373 310.191 174.374C351.255 186.79 415.288 179.837 426.14 234.721C436.892 289.119 331.843 325.849 266.792 297.858Z" fill="#F0F8FF"/>
<path d="M98.237 321.98C98.237 321.98 78.7812 319.485 83.7008 299.951C88.6204 280.417 85.8834 270.201 71.1115 255.559C56.3395 240.916 56.3439 228.536 62.477 214.893C68.6102 201.25 39.6861 186.018 52.7076 174.124C73.508 155.126 66.0041 143.665 56.1169 134.44C45.0117 124.077 42.768 103.588 60.015 105.396C77.2621 107.203 87.4724 135.601 87.3196 147.579C87.1668 159.557 88.4938 170.973 106.898 178.993C125.301 187.013 130.112 196.439 131.95 212.398C133.788 228.357 130.37 227.813 145.255 248.07L98.237 321.98Z" fill="#47B0AA"/>
<g opacity="0.5">
<path d="M146.966 310.564C121.111 289.722 73.5559 166.225 73.0801 164.989L73.9531 164.645C74.4246 165.89 121.888 289.16 147.555 309.841L146.966 310.564Z" fill="white"/>
<path d="M95.0198 220.476C92.178 220.922 88.6291 219.489 84.4341 216.214L84.9972 215.477C89.799 219.213 93.6011 220.436 96.3468 219.106C100.86 216.905 101.07 208.395 101.074 208.332H101.991C101.991 208.707 101.751 217.49 96.7528 219.936C96.2055 220.205 95.6211 220.387 95.0198 220.476Z" fill="white"/>
<path d="M83.0417 192.016C80.2 192.462 76.651 191.039 72.4517 187.763L73.0148 187.022C77.8165 190.771 81.623 191.985 84.3644 190.65C88.878 188.459 89.0963 179.962 89.0963 179.872H90.0086C90.0086 180.252 89.7773 189.035 84.7704 191.476C84.2232 191.742 83.6407 191.924 83.0417 192.016Z" fill="white"/>
<path d="M75.7693 175.588C72.9275 176.034 69.3786 174.593 65.1836 171.321L65.7423 170.581C70.5441 174.325 74.3506 175.543 77.092 174.213C81.6056 172.013 81.8195 163.502 81.8195 163.436L82.7362 163.458C82.7362 163.824 82.5048 172.602 77.4979 175.061C76.9518 175.327 76.3686 175.505 75.7693 175.588Z" fill="white"/>
<path d="M89.6859 207.556C87.3112 207.926 84.3515 206.734 80.855 204.012L81.4225 203.276C85.3512 206.351 88.5029 207.368 90.7335 206.266C94.4178 204.481 94.6055 197.483 94.6055 197.411H95.5178C95.5178 197.724 95.3257 205.048 91.1264 207.092C90.6724 207.321 90.1865 207.478 89.6859 207.556Z" fill="white"/>
<path d="M101.293 234.529C98.451 234.976 94.902 233.539 90.707 230.267L91.2658 229.522C96.0675 233.275 99.8653 234.485 102.615 233.155C107.129 230.964 107.347 222.466 107.347 222.377L108.264 222.399C108.264 222.77 108.033 231.548 103.026 234.003C102.477 234.266 101.893 234.444 101.293 234.529Z" fill="white"/>
<path d="M107.404 251.279C104.567 251.725 101.013 250.297 96.814 247.026L97.3771 246.285C102.179 250.02 105.99 251.243 108.727 249.909C113.24 247.713 113.454 239.224 113.459 239.14H114.371C114.371 239.501 114.14 248.289 109.133 250.743C108.587 251.011 108.004 251.192 107.404 251.279Z" fill="white"/>
<path d="M114.192 263.11C112.136 263.431 109.578 262.405 106.566 260.048L107.133 259.316C110.486 261.94 113.153 262.797 115.039 261.882C118.173 260.361 118.321 254.403 118.326 254.345H119.243C119.243 254.608 119.072 260.927 115.44 262.704C115.045 262.898 114.625 263.035 114.192 263.11Z" fill="white"/>
</g>
<path d="M122.215 254.568C122.215 254.568 82.4917 256.415 79.2483 246.088C76.005 235.761 81.8675 222.404 67.842 213.42C53.8165 204.436 47.7619 190.659 41.5458 194.279C33.5443 198.938 40.4807 209.377 48.4734 218.802C57.7845 229.799 54.8816 240.3 52.7775 245.87C47.4956 259.865 64.1272 263.819 64.1883 281.573C64.2101 288.843 77.284 311.795 111.084 296.773L122.215 254.568Z" fill="#59D1BA"/>
<g opacity="0.5">
<path d="M113.249 296.381C99.7168 292.467 62.9703 252.095 62.6123 251.689L62.9179 251.417C63.2845 251.823 99.9656 292.118 113.397 296.006L113.249 296.381Z" fill="white"/>
<path d="M79.3486 269.737C78.2399 270.371 76.5854 270.393 74.4028 269.8L74.5338 269.42C77.0176 270.094 78.7593 269.951 79.6979 268.974C81.2475 267.385 80.1344 264.042 80.1344 264.007L80.5142 263.864C80.5622 264.011 81.6928 267.47 79.9685 269.219C79.7859 269.42 79.5773 269.594 79.3486 269.737Z" fill="white"/>
<path d="M70.4609 260.597C69.3522 261.231 67.6978 261.258 65.5151 260.664L65.6417 260.285C68.1343 260.963 69.8716 260.816 70.8102 259.838C72.3598 258.25 71.2467 254.929 71.2467 254.871L71.6265 254.728C71.6788 254.876 72.8051 258.334 71.0852 260.084C70.9 260.282 70.6902 260.455 70.4609 260.597Z" fill="white"/>
<path d="M65.1836 255.38C64.0748 256.018 62.416 256.032 60.2378 255.442L60.3644 255.063C62.8526 255.741 64.5943 255.594 65.5285 254.617C67.0781 253.028 65.965 249.681 65.965 249.65L66.3404 249.511C66.3928 249.654 67.519 253.113 65.7991 254.867C65.62 255.068 65.4125 255.241 65.1836 255.38Z" fill="white"/>
<path d="M75.3547 265.569C74.4336 266.1 73.0498 266.118 71.2339 265.627L71.3605 265.247C73.4078 265.805 74.8527 265.694 75.6079 264.899C76.8738 263.601 75.9745 260.847 75.9658 260.816L76.3412 260.673C76.3849 260.793 77.3278 263.681 75.8829 265.163C75.728 265.325 75.5499 265.462 75.3547 265.569Z" fill="white"/>
<path d="M83.8799 274.191C82.7755 274.829 81.1167 274.847 78.9341 274.254L79.0607 273.874C81.5489 274.557 83.2862 274.405 84.2247 273.428C85.7744 271.839 84.6613 268.492 84.6613 268.456L85.041 268.318C85.0891 268.461 86.2197 271.919 84.4998 273.673C84.3184 273.875 84.1096 274.05 83.8799 274.191Z" fill="white"/>
<path d="M88.7207 279.716C87.6163 280.35 85.9575 280.372 83.7749 279.783L83.9015 279.404C86.394 280.078 88.1358 279.93 89.0699 278.957C90.6196 277.364 89.5065 274.026 89.5065 273.99L89.8862 273.847C89.9342 273.986 91.0648 277.449 89.3406 279.203C89.1592 279.404 88.9504 279.576 88.7207 279.716Z" fill="white"/>
<path d="M93.169 283.228C92.3658 283.675 91.1741 283.701 89.6069 283.273L89.7379 282.894C91.484 283.376 92.6975 283.273 93.3436 282.608C94.4218 281.506 93.6535 279.163 93.6448 279.136L94.0246 278.998C94.0595 279.1 94.8714 281.591 93.6273 282.871C93.49 283.01 93.336 283.13 93.169 283.228Z" fill="white"/>
</g>
<path d="M335.54 288.994C335.54 288.994 348.793 292.118 350.137 278.185C351.482 264.252 355.637 258.272 368.676 252.332C381.715 246.392 384.596 238.327 383.776 227.947C382.955 217.566 405.344 214.687 399.635 203.767C390.511 186.33 398.068 180.693 406.654 177.092C416.305 173.044 422.539 160.245 410.884 157.223C399.229 154.202 385.963 170.21 383.287 178.051C380.611 185.893 377.071 193.002 363.207 193.747C349.343 194.493 344 199.46 339.106 209.408C334.213 219.356 336.548 219.833 322.13 229.401L335.54 288.994Z" fill="#47B0AA"/>
<g opacity="0.5">
<path d="M306.459 269.697C328.163 262.418 387.905 193.551 388.525 192.864L388.045 192.418C387.451 193.114 327.805 261.847 306.284 269.077L306.459 269.697Z" fill="white"/>
<path d="M361.286 223.662C363.032 224.644 365.678 224.577 369.174 223.466L368.982 222.85C364.992 224.117 362.22 223.984 360.754 222.453C358.322 219.918 360.164 214.339 360.182 214.286L359.584 214.067C359.501 214.312 357.606 220.087 360.304 222.899C360.59 223.205 360.922 223.462 361.286 223.662Z" fill="white"/>
<path d="M375.718 208.042C377.464 209.024 380.109 208.961 383.606 207.85L383.414 207.23C379.42 208.506 376.648 208.368 375.185 206.837C372.754 204.307 374.592 198.719 374.614 198.661L374.016 198.451C373.928 198.697 372.029 204.476 374.731 207.288C375.022 207.587 375.355 207.841 375.718 208.042Z" fill="white"/>
<path d="M384.282 199.112C386.028 200.094 388.678 200.004 392.17 198.911L391.978 198.291C387.988 199.567 385.216 199.429 383.75 197.898C381.323 195.367 383.16 189.78 383.178 189.726L382.58 189.517C382.497 189.758 380.598 195.533 383.3 198.349C383.59 198.65 383.92 198.908 384.282 199.112Z" fill="white"/>
<path d="M367.773 216.548C369.231 217.365 371.439 217.312 374.351 216.388L374.15 215.772C370.872 216.816 368.585 216.714 367.389 215.455C365.407 213.389 366.913 208.787 366.93 208.761L366.332 208.551C366.262 208.752 364.678 213.572 366.939 215.924C367.184 216.174 367.465 216.385 367.773 216.548Z" fill="white"/>
<path d="M353.935 231.294C355.681 232.276 358.327 232.186 361.823 231.093L361.631 230.473C357.641 231.753 354.874 231.611 353.403 230.08C350.976 227.554 352.813 221.966 352.831 221.908L352.228 221.699C352.145 221.944 350.251 227.715 352.949 230.531C353.238 230.834 353.571 231.091 353.935 231.294Z" fill="white"/>
<path d="M346.06 240.719C347.806 241.697 350.451 241.612 353.948 240.523L353.756 239.907C349.762 241.175 346.99 241.041 345.527 239.51C343.096 236.979 344.934 231.396 344.951 231.338L344.353 231.129C344.27 231.361 342.371 237.145 345.074 239.956C345.364 240.258 345.697 240.516 346.06 240.719Z" fill="white"/>
<path d="M338.871 246.771C340.132 247.476 342.04 247.432 344.546 246.628L344.349 246.012C341.551 246.905 339.613 246.816 338.596 245.762C336.911 244.004 338.203 240.09 338.216 240.05L337.614 239.84C337.553 240.014 336.186 244.169 338.142 246.209C338.359 246.429 338.604 246.619 338.871 246.771Z" fill="white"/>
</g>
<path d="M313.33 251.6C313.33 251.6 350.665 261.351 355.72 252.216C360.775 243.08 357.811 229.223 372.832 223.524C387.853 217.825 396.273 205.985 401.468 210.662C408.156 216.691 399.565 225.189 390.18 232.53C379.227 241.085 379.961 251.631 380.882 257.339C383.195 271.678 366.642 272.067 363.181 288.91C361.762 295.8 344.943 314.942 315.765 293.886L313.33 251.6Z" fill="#59D1BA"/>
<g opacity="0.5">
<path d="M313.779 293.078C327.368 292.092 370.008 261.195 370.436 260.883L370.2 260.566C369.764 260.878 327.216 291.717 313.727 292.699L313.779 293.078Z" fill="white"/>
<path d="M351.072 274.628C352.002 275.454 353.569 275.811 355.751 275.686L355.699 275.302C353.211 275.441 351.591 274.954 350.897 273.852C349.736 272.031 351.421 269.081 351.434 269.05L351.102 268.836C351.028 268.97 349.291 272.022 350.583 274.044C350.719 274.261 350.883 274.458 351.072 274.628Z" fill="white"/>
<path d="M361.265 267.751C362.19 268.577 363.757 268.934 365.94 268.809L365.892 268.425C363.399 268.568 361.775 268.077 361.09 266.975C359.924 265.154 361.609 262.204 361.627 262.173L361.295 261.963C361.217 262.092 359.479 265.145 360.771 267.171C360.91 267.386 361.076 267.581 361.265 267.751Z" fill="white"/>
<path d="M367.275 263.868C368.201 264.694 369.772 265.042 371.955 264.917L371.907 264.533C369.414 264.676 367.791 264.185 367.105 263.087C365.944 261.267 367.629 258.312 367.642 258.285L367.31 258.076C367.236 258.201 365.499 261.253 366.791 263.279C366.925 263.498 367.088 263.696 367.275 263.868Z" fill="white"/>
<path d="M355.66 271.482C356.437 272.174 357.746 272.468 359.562 272.375L359.51 271.991C357.462 272.107 356.127 271.71 355.55 270.804C354.603 269.318 355.987 266.885 355.987 266.859L355.655 266.649C355.594 266.756 354.14 269.304 355.219 270.996C355.341 271.179 355.49 271.343 355.66 271.482Z" fill="white"/>
<path d="M345.912 277.931C346.842 278.757 348.409 279.109 350.592 278.984L350.548 278.6C348.055 278.743 346.436 278.252 345.746 277.154C344.585 275.334 346.266 272.379 346.283 272.352L345.951 272.138C345.877 272.268 344.14 275.32 345.432 277.346C345.566 277.562 345.727 277.759 345.912 277.931Z" fill="white"/>
<path d="M340.259 282.22C341.184 283.041 342.751 283.398 344.934 283.278L344.886 282.889C342.393 283.032 340.769 282.541 340.084 281.439C338.919 279.622 340.604 276.672 340.621 276.641L340.289 276.427C340.215 276.552 338.473 279.609 339.77 281.631C339.904 281.85 340.069 282.049 340.259 282.22Z" fill="white"/>
<path d="M335.366 284.625C336.034 285.223 337.164 285.478 338.731 285.388L338.683 285.005C336.937 285.107 335.802 284.764 335.313 284.005C334.506 282.742 335.689 280.671 335.697 280.653L335.366 280.444C335.313 280.533 334.056 282.729 334.999 284.197C335.101 284.357 335.224 284.501 335.366 284.625Z" fill="white"/>
</g>
<path d="M63.481 116.508C63.4798 117.346 63.6403 118.177 63.9533 118.951C64.2663 119.726 64.7256 120.43 65.3049 121.024C65.8843 121.617 66.5723 122.087 67.3297 122.408C68.0871 122.729 68.899 122.895 69.7189 122.895H206.835C208.492 122.895 210.081 122.222 211.252 121.024C212.424 119.826 213.082 118.202 213.082 116.508V28.5893C213.081 26.8963 212.422 25.273 211.251 24.0763C210.079 22.8796 208.491 22.2073 206.835 22.2073H69.7189C68.899 22.2073 68.0871 22.3726 67.3297 22.6936C66.5723 23.0147 65.8843 23.4853 65.3049 24.0784C64.7256 24.6716 64.2663 25.3757 63.9533 26.1504C63.6403 26.9252 63.4798 27.7555 63.481 28.5937V116.508Z" fill="#CEE8EF"/>
<path d="M69.7189 22.2073H206.835C208.492 22.2073 210.081 22.8802 211.252 24.0779C212.424 25.2755 213.082 26.9 213.082 28.5937V40.4516H63.481V28.5982C63.4792 27.7596 63.6393 26.9288 63.952 26.1535C64.2648 25.3782 64.724 24.6736 65.3034 24.08C65.8828 23.4864 66.571 23.0154 67.3287 22.6941C68.0864 22.3727 68.8986 22.2073 69.7189 22.2073Z" fill="#B7D9F7"/>
<path d="M197.939 31.3964C197.939 32.024 198.121 32.6375 198.462 33.1593C198.803 33.6811 199.288 34.0879 199.855 34.328C200.422 34.5682 201.046 34.631 201.648 34.5086C202.25 34.3862 202.803 34.0839 203.237 33.6402C203.671 33.1964 203.967 32.631 204.087 32.0155C204.206 31.4 204.145 30.762 203.91 30.1822C203.675 29.6023 203.277 29.1068 202.767 28.7581C202.257 28.4094 201.657 28.2233 201.043 28.2233C200.635 28.2227 200.231 28.3044 199.854 28.4637C199.477 28.6229 199.135 28.8566 198.847 29.1514C198.558 29.4462 198.33 29.7962 198.174 30.1815C198.018 30.5667 197.938 30.9796 197.939 31.3964Z" fill="white"/>
<path d="M190.104 31.3964C190.104 32.0238 190.285 32.6372 190.626 33.1589C190.967 33.6806 191.452 34.0873 192.018 34.3276C192.585 34.5679 193.209 34.631 193.811 34.5089C194.413 34.3868 194.966 34.0851 195.4 33.6417C195.835 33.1984 196.13 32.6335 196.251 32.0182C196.371 31.403 196.31 30.7651 196.076 30.1852C195.842 29.6053 195.444 29.1095 194.935 28.7603C194.425 28.4111 193.825 28.2242 193.212 28.2233C192.804 28.2227 192.4 28.3044 192.022 28.4636C191.645 28.6228 191.303 28.8564 191.014 29.1511C190.725 29.4458 190.496 29.7958 190.34 30.1811C190.184 30.5664 190.104 30.9794 190.104 31.3964Z" fill="white"/>
<path d="M182.547 31.3965C182.548 32.0228 182.731 32.6348 183.072 33.1552C183.412 33.6756 183.896 34.081 184.463 34.3203C185.029 34.5596 185.652 34.6219 186.252 34.4995C186.853 34.3771 187.405 34.0754 187.838 33.6326C188.271 33.1897 188.567 32.6255 188.686 32.0113C188.806 31.397 188.745 30.7603 188.511 30.1815C188.277 29.6027 187.88 29.1077 187.371 28.7592C186.862 28.4107 186.264 28.2242 185.651 28.2233C185.243 28.2222 184.839 28.3034 184.462 28.4625C184.085 28.6215 183.742 28.8552 183.454 29.1501C183.165 29.445 182.937 29.7953 182.781 30.1808C182.626 30.5663 182.546 30.9794 182.547 31.3965Z" fill="white"/>
<path d="M69.5225 116.508C69.5213 117.346 69.6817 118.176 69.9944 118.95C70.3071 119.725 70.766 120.429 71.3449 121.022C71.9238 121.615 72.6113 122.086 73.3682 122.407C74.1251 122.728 74.9365 122.894 75.756 122.895H212.877C214.533 122.895 216.122 122.222 217.294 121.024C218.465 119.826 219.123 118.202 219.123 116.508V28.5893C219.122 26.8963 218.464 25.273 217.292 24.0763C216.121 22.8796 214.533 22.2073 212.877 22.2073H75.756C74.9365 22.2079 74.1251 22.3736 73.3682 22.6949C72.6113 23.0162 71.9238 23.4869 71.3449 24.08C70.766 24.6731 70.3071 25.377 69.9944 26.1515C69.6817 26.926 69.5213 27.7559 69.5225 28.5937V116.508Z" fill="#EBF3FF"/>
<path d="M75.756 22.2073H212.877C214.533 22.2073 216.122 22.8802 217.294 24.0779C218.465 25.2755 219.123 26.9 219.123 28.5937V40.4516H69.5225V28.5982C69.5208 27.7599 69.6807 26.9296 69.9931 26.1546C70.3056 25.3796 70.7644 24.6751 71.3433 24.0816C71.9223 23.488 72.61 23.0169 73.3672 22.6953C74.1244 22.3738 74.9361 22.2079 75.756 22.2073Z" fill="#B3D0FF"/>
<path d="M203.98 31.3965C203.98 32.024 204.163 32.6375 204.504 33.1593C204.845 33.6812 205.329 34.0879 205.896 34.328C206.464 34.5682 207.088 34.631 207.69 34.5086C208.292 34.3862 208.845 34.084 209.279 33.6402C209.713 33.1964 210.008 32.631 210.128 32.0155C210.248 31.4 210.186 30.762 209.952 30.1822C209.717 29.6023 209.319 29.1068 208.808 28.7581C208.298 28.4094 207.698 28.2233 207.084 28.2233C206.676 28.2222 206.272 28.3034 205.895 28.4625C205.518 28.6215 205.175 28.8552 204.887 29.1501C204.599 29.445 204.37 29.7953 204.214 30.1808C204.059 30.5663 203.979 30.9794 203.98 31.3965Z" fill="#B3D0FF"/>
<path d="M196.145 31.3965C196.145 32.0238 196.327 32.6372 196.668 33.1589C197.009 33.6806 197.493 34.0873 198.06 34.3276C198.627 34.5679 199.251 34.631 199.853 34.5089C200.455 34.3868 201.008 34.0851 201.442 33.6418C201.876 33.1984 202.172 32.6335 202.292 32.0182C202.412 31.403 202.352 30.7651 202.117 30.1852C201.883 29.6054 201.486 29.1095 200.976 28.7603C200.466 28.4111 199.867 28.2242 199.253 28.2233C198.845 28.2222 198.441 28.3034 198.063 28.4624C197.686 28.6214 197.343 28.855 197.054 29.1498C196.766 29.4447 196.537 29.7949 196.381 30.1804C196.224 30.566 196.144 30.9792 196.145 31.3965Z" fill="#B3D0FF"/>
<path d="M188.598 31.3965C188.598 32.0238 188.78 32.6372 189.12 33.1589C189.461 33.6806 189.946 34.0873 190.513 34.3276C191.079 34.5679 191.703 34.631 192.305 34.5089C192.907 34.3868 193.46 34.0851 193.894 33.6418C194.329 33.1984 194.625 32.6335 194.745 32.0182C194.865 31.403 194.804 30.7651 194.57 30.1852C194.336 29.6054 193.939 29.1095 193.429 28.7603C192.919 28.4111 192.319 28.2242 191.706 28.2233C191.298 28.2222 190.893 28.3034 190.516 28.4624C190.139 28.6214 189.796 28.855 189.507 29.1498C189.218 29.4447 188.989 29.7949 188.833 30.1804C188.677 30.566 188.597 30.9792 188.598 31.3965Z" fill="#B3D0FF"/>
<path d="M161.394 85.3707L109.657 85.2279C107.895 85.2184 106.21 84.4952 104.969 83.2169C103.728 81.9385 103.034 80.2093 103.039 78.4086L103.227 7.00231C103.229 6.10875 103.402 5.22431 103.739 4.3995C104.075 3.57469 104.567 2.82569 105.186 2.1953C105.806 1.56491 106.54 1.06549 107.349 0.725576C108.157 0.38566 109.023 0.21191 109.897 0.214257L156.531 0.343681C156.667 0.343282 156.798 0.392324 156.902 0.48203L168.064 10.2334C168.126 10.2889 168.177 10.3574 168.211 10.4344C168.246 10.5113 168.264 10.595 168.264 10.6797L168.081 78.5826C168.079 79.4775 167.904 80.3632 167.566 81.1889C167.229 82.0146 166.735 82.7641 166.114 83.3946C165.493 84.0252 164.756 84.5242 163.946 84.8633C163.136 85.2024 162.269 85.3748 161.394 85.3707Z" fill="#5FB7FF"/>
<path d="M156.722 0.3526L156.696 10.3852L168.242 10.4164L156.722 0.3526Z" fill="#45A2FF"/>
<path d="M160.428 32.6193L110.896 32.472C110.709 32.472 110.529 32.3958 110.396 32.2603C110.263 32.1247 110.189 31.9408 110.189 31.749V30.4637C110.189 30.369 110.207 30.2752 110.243 30.1877C110.278 30.1002 110.331 30.0208 110.396 29.9541C110.462 29.8873 110.54 29.8344 110.626 29.7986C110.712 29.7628 110.803 29.7446 110.896 29.7452L154.57 29.8612H160.428C160.616 29.8612 160.796 29.9374 160.928 30.073C161.061 30.2086 161.136 30.3925 161.136 30.5842V31.8785C161.138 31.9749 161.121 32.0708 161.087 32.1606C161.052 32.2504 161.001 32.3322 160.935 32.4013C160.869 32.4703 160.79 32.5252 160.703 32.5626C160.616 32.6 160.523 32.6193 160.428 32.6193Z" fill="#45A2FF"/>
<path d="M110.18 34.5903L110.173 37.0761C110.173 37.1476 110.23 37.2057 110.299 37.2058L160.993 37.3415C161.063 37.3417 161.119 37.2839 161.12 37.2125L161.126 34.7266C161.126 34.6552 161.07 34.597 161 34.5969L110.306 34.4612C110.237 34.461 110.18 34.5188 110.18 34.5903Z" fill="#45A2FF"/>
<path d="M110.158 44.0362L110.151 46.522C110.151 46.5935 110.208 46.6516 110.277 46.6518L160.971 46.7875C161.041 46.7876 161.097 46.7298 161.098 46.6584L161.104 44.1725C161.104 44.1011 161.048 44.043 160.978 44.0428L110.284 43.9071C110.215 43.9069 110.158 43.9647 110.158 44.0362Z" fill="#45A2FF"/>
<path d="M110.144 48.7569L110.138 51.2427C110.138 51.3142 110.194 51.3723 110.264 51.3725L160.958 51.5082C161.027 51.5083 161.084 51.4505 161.085 51.3791L161.091 48.8932C161.091 48.8218 161.035 48.7637 160.965 48.7635L110.271 48.6278C110.201 48.6276 110.145 48.6854 110.144 48.7569Z" fill="#45A2FF"/>
<path d="M109.749 71.1831V73.669C109.749 73.7405 109.805 73.7984 109.875 73.7984H160.569C160.639 73.7984 160.695 73.7405 160.695 73.669V71.1831C160.695 71.1117 160.639 71.0537 160.569 71.0537H109.875C109.805 71.0537 109.749 71.1117 109.749 71.1831Z" fill="#45A2FF"/>
<path d="M110.144 76.1639L110.138 78.6497C110.138 78.7212 110.194 78.7793 110.264 78.7795L160.958 78.9151C161.027 78.9153 161.084 78.8575 161.084 78.786L161.091 76.3002C161.091 76.2287 161.035 76.1707 160.965 76.1705L110.271 76.0348C110.201 76.0346 110.145 76.0924 110.144 76.1639Z" fill="#45A2FF"/>
<path d="M109.749 14.0224V16.5083C109.749 16.5797 109.805 16.6377 109.875 16.6377H160.569C160.639 16.6377 160.695 16.5797 160.695 16.5083V14.0224C160.695 13.951 160.639 13.893 160.569 13.893H109.875C109.805 13.893 109.749 13.951 109.749 14.0224Z" fill="#45A2FF"/>
<path d="M110.145 18.8531L110.139 21.339C110.138 21.4104 110.195 21.4685 110.265 21.4687L160.958 21.6044C161.028 21.6046 161.085 21.5468 161.085 21.4753L161.091 18.9895C161.092 18.918 161.035 18.8599 160.965 18.8597L110.272 18.7241C110.202 18.7239 110.145 18.7817 110.145 18.8531Z" fill="#45A2FF"/>
<path d="M110.118 58.2028L110.112 60.6886C110.111 60.7601 110.168 60.8182 110.238 60.8184L160.931 60.9541C161.001 60.9543 161.058 60.8965 161.058 60.825L161.065 58.3392C161.065 58.2677 161.008 58.2096 160.938 58.2094L110.245 58.0737C110.175 58.0735 110.118 58.1313 110.118 58.2028Z" fill="#45A2FF"/>
<path d="M110.105 62.928L110.099 65.4138C110.099 65.4853 110.155 65.5434 110.225 65.5436L160.919 65.6792C160.988 65.6794 161.045 65.6216 161.045 65.5501L161.052 63.0643C161.052 62.9929 160.995 62.9348 160.926 62.9346L110.232 62.7989C110.162 62.7987 110.106 62.8565 110.105 62.928Z" fill="#45A2FF"/>
<path d="M162.031 26.5988H93.2871C93.046 26.5988 92.8506 26.7986 92.8506 27.0451V39.443C92.8506 39.6895 93.046 39.8893 93.2871 39.8893H162.031C162.272 39.8893 162.467 39.6895 162.467 39.443V27.0451C162.467 26.7986 162.272 26.5988 162.031 26.5988Z" fill="#D4E6ED"/>
<path d="M149.197 31.8874H97.7788C97.6197 31.8874 97.4907 32.0193 97.4907 32.1819V34.8998C97.4907 35.0625 97.6197 35.1944 97.7788 35.1944H149.197C149.356 35.1944 149.485 35.0625 149.485 34.8998V32.1819C149.485 32.0193 149.356 31.8874 149.197 31.8874Z" fill="white"/>
<path d="M159.896 33.5431C159.896 34.2943 159.678 35.0285 159.27 35.6531C158.862 36.2777 158.282 36.7645 157.603 37.0519C156.924 37.3394 156.177 37.4146 155.456 37.268C154.736 37.1215 154.074 36.7598 153.554 36.2286C153.035 35.6975 152.681 35.0208 152.538 34.284C152.394 33.5473 152.468 32.7837 152.749 32.0897C153.03 31.3957 153.506 30.8026 154.117 30.3852C154.728 29.9679 155.446 29.7452 156.181 29.7452C157.166 29.7452 158.111 30.1453 158.808 30.8576C159.505 31.5698 159.896 32.5358 159.896 33.5431Z" fill="white"/>
<path d="M162.031 54.117H93.2871C93.046 54.117 92.8506 54.3168 92.8506 54.5633V66.9612C92.8506 67.2077 93.046 67.4075 93.2871 67.4075H162.031C162.272 67.4075 162.467 67.2077 162.467 66.9612V54.5633C162.467 54.3168 162.272 54.117 162.031 54.117Z" fill="#D4E6ED"/>
<path d="M149.197 59.4056H97.7788C97.6197 59.4056 97.4907 59.5374 97.4907 59.7001V62.418C97.4907 62.5807 97.6197 62.7126 97.7788 62.7126H149.197C149.356 62.7126 149.485 62.5807 149.485 62.418V59.7001C149.485 59.5374 149.356 59.4056 149.197 59.4056Z" fill="white"/>
<path d="M156.181 64.8592C158.233 64.8592 159.896 63.1588 159.896 61.0613C159.896 58.9638 158.233 57.2634 156.181 57.2634C154.129 57.2634 152.466 58.9638 152.466 61.0613C152.466 63.1588 154.129 64.8592 156.181 64.8592Z" fill="white"/>
<path d="M139.707 43.7363L134.421 44.1826L130.811 48.0921C130.546 48.4118 130.191 48.6391 129.794 48.7425C129.397 48.8459 128.978 48.8202 128.596 48.6689C128.214 48.5177 127.888 48.2484 127.663 47.8986C127.438 47.5488 127.325 47.136 127.34 46.7175L127.554 33.9001C127.56 33.5097 127.673 33.1288 127.879 32.8002C128.086 32.4715 128.377 32.2081 128.722 32.0394C129.066 31.8707 129.45 31.8035 129.83 31.8452C130.209 31.8869 130.57 32.036 130.872 32.2756L140.776 40.1392C141.102 40.394 141.345 40.7432 141.473 41.1413C141.602 41.5394 141.61 41.9678 141.497 42.3707C141.367 42.7559 141.127 43.0922 140.808 43.3358C140.489 43.5794 140.105 43.719 139.707 43.7363Z" fill="#2C4A7E"/>
<path d="M133.808 38.0664L130.151 39.8585C129.934 39.965 129.842 40.2316 129.946 40.4538L137.067 55.6421C137.171 55.8644 137.432 55.9582 137.649 55.8516L141.306 54.0595C141.524 53.953 141.615 53.6864 141.511 53.4642L134.39 38.2759C134.286 38.0537 134.025 37.9599 133.808 38.0664Z" fill="#2C4A7E"/>
<path d="M415.59 331.303C415.59 342.496 322.562 351.569 207.805 351.569C93.047 351.569 0.0195312 342.496 0.0195312 331.303C0.0195312 320.11 93.047 311.037 207.805 311.037C322.562 311.037 415.59 320.11 415.59 331.303Z" fill="#D7E4F9"/>
<path d="M107.919 317.57H331.908L372.016 151.185H152.117L107.919 317.57Z" fill="#142480"/>
<path d="M332.515 318.356H106.907L107.173 317.374L151.524 150.391H372.998L332.515 318.356ZM108.923 316.78H331.306L371.03 151.97H152.711L108.923 316.78Z" fill="#142480"/>
<path d="M99.813 317.57H323.798L363.91 151.185H144.011L99.813 317.57Z" fill="#94B8ED"/>
<path d="M324.404 318.356H98.8003L99.0666 317.374L143.417 150.391H364.892L324.404 318.356ZM100.817 316.78H323.2L362.923 151.97H144.6L100.817 316.78Z" fill="#94B8ED"/>
<path d="M116.405 305.967H309.122L344.633 162.802H154.431L116.405 305.967Z" fill="#E7F4FA"/>
<path d="M309.72 306.752H115.397L115.659 305.762L153.837 162.012H345.619L309.72 306.752ZM117.414 305.177H308.528L343.642 163.587H155.025L117.414 305.177Z" fill="#E7F4FA"/>
<path d="M328.543 317.615H9.3042V298.599H332.751L328.543 317.615Z" fill="#142480"/>
<path d="M329.158 318.405H8.51855V297.813H333.729L329.158 318.405ZM10.0595 316.821H327.892L331.755 299.415H10.0813L10.0595 316.821Z" fill="#142480"/>
<path d="M42.2529 277.212C41.9056 277.212 41.5725 277.071 41.3269 276.82C41.0813 276.569 40.9434 276.229 40.9434 275.874V265.569C40.9434 265.214 41.0813 264.873 41.3269 264.622C41.5725 264.371 41.9056 264.23 42.2529 264.23C42.6002 264.23 42.9333 264.371 43.1789 264.622C43.4245 264.873 43.5625 265.214 43.5625 265.569V275.869C43.5631 276.045 43.5296 276.22 43.4641 276.383C43.3985 276.546 43.3021 276.694 43.1805 276.819C43.0588 276.944 42.9143 277.043 42.7551 277.11C42.5959 277.178 42.4253 277.212 42.2529 277.212Z" fill="#F2B541"/>
<path d="M35.9019 270.719C35.9019 270.364 36.0398 270.023 36.2854 269.772C36.531 269.521 36.8641 269.38 37.2114 269.38H47.2864C47.6337 269.38 47.9668 269.521 48.2124 269.772C48.458 270.023 48.596 270.364 48.596 270.719C48.596 271.074 48.458 271.415 48.2124 271.666C47.9668 271.917 47.6337 272.058 47.2864 272.058H37.2158C37.0435 272.058 36.8727 272.024 36.7133 271.957C36.5539 271.89 36.409 271.792 36.287 271.667C36.1649 271.543 36.068 271.395 36.002 271.232C35.9359 271.07 35.9019 270.895 35.9019 270.719Z" fill="#F2B541"/>
<path d="M337.587 67.3004H288.74V91.7749H337.587V67.3004Z" fill="#75C2D3"/>
<path d="M288.74 67.3004L313.164 79.5377L337.587 67.3004H288.74Z" fill="#ACDFF2"/>
<path d="M335.64 122.051H320.659C320.558 122.051 320.476 122.135 320.476 122.239V125.006C320.476 125.109 320.558 125.193 320.659 125.193H335.64C335.742 125.193 335.824 125.109 335.824 125.006V122.239C335.824 122.135 335.742 122.051 335.64 122.051Z" fill="#5FB7FF"/>
<path d="M82.8499 228.393C82.8499 228.393 72.4257 221.783 70.8761 215.451C69.3264 209.118 73.9535 206.694 73.9535 206.694C73.9535 206.694 84.7968 220.574 88.7299 226.358C93.7019 233.695 82.8499 228.393 82.8499 228.393Z" fill="#FFBE9E"/>
<path d="M68.3484 200.326C60.8882 206.293 73.6696 222.591 73.6696 222.591L82.7362 217.767C82.7362 217.767 75.6208 194.506 68.3484 200.326Z" fill="#E08B03"/>
<path d="M47.8843 262.748L80.8462 238.974L80.2001 234.105L48.8577 231.673L47.8843 262.748Z" fill="#5A7FE5"/>
<path d="M76.3588 204.659C74.2417 197.719 64.0271 197.362 55.7156 198.648C50.115 199.514 46.5094 201.375 45.8895 208.524C45.4923 213.085 46.7189 233.039 49.4515 238.323C49.4515 238.323 58.9939 243.781 80.2526 237.087C80.2526 237.087 80.89 219.494 76.3588 204.659Z" fill="#FEB801"/>
<path d="M48.1812 239.55C48.1812 239.55 68.414 243.567 81.0601 237.386L80.187 234.092C80.187 234.092 65.7512 239.47 48.4867 235.766L48.1812 239.55Z" fill="#305DDE"/>
<path d="M58.2519 236.221H60.0503L60.4738 241.728H57.5098L58.2519 236.221Z" fill="#5A7FE5"/>
<path d="M70.8105 235.583L72.1114 235.168L74.342 240.22L71.6661 241.076L70.8105 235.583Z" fill="#5A7FE5"/>
<path d="M56.606 189.418C56.606 189.418 65.1619 191.297 64.6861 192.011C64.2103 192.725 65.044 194.167 65.0659 195.559C65.0921 197.072 66.0742 198.683 67.3925 200.201C68.3136 201.267 66.6766 202.548 65.2099 202.829C58.9283 204.034 54.9603 201.633 56.2874 199.558C59.2819 194.886 56.606 189.418 56.606 189.418Z" fill="#FFBE9E"/>
<path d="M65.0612 195.559C65.0612 194.167 64.1882 192.725 64.6815 192.011C65.1747 191.297 55.9248 189.271 55.9248 189.271C56.8227 190.296 57.395 191.575 57.5661 192.94C60.1329 196.483 63.7953 197.599 66.1089 198.491C65.5507 197.606 65.1928 196.604 65.0612 195.559Z" fill="#FF9C81"/>
<path d="M65.2185 179.332C68.5841 181.934 71.4564 190.936 67.9337 195.198C65.9955 197.545 58.9544 195.051 55.6543 189.936C55.2177 189.271 54.1701 185.473 55.9293 181.314C56.7194 179.435 61.7176 176.623 65.2185 179.332Z" fill="#FFBE9E"/>
<path d="M69.1037 186.406C69.1037 186.959 68.3486 180.975 65.0572 180.569C63.717 180.403 64.0182 181.845 62.4642 181.961C61.1546 182.059 57.1648 179.332 58.6927 187.41C58.7669 187.798 58.4089 188.254 58.2561 188.606C58.0379 189.052 58.6927 190.017 58.6927 190.498C58.6927 190.98 57.3176 189.534 57.3438 189.999C57.3831 190.704 58.5748 192.676 57.5839 192.94C57.1037 193.069 56.5188 192.279 56.1695 192.011C55.1743 191.262 54.0655 190.739 53.2274 189.78C52.3281 188.684 51.746 187.353 51.5468 185.937C51.263 184.552 51.3829 183.112 51.8916 181.796C52.1844 181.124 52.6095 180.52 53.1405 180.023C53.6715 179.527 54.297 179.147 54.9778 178.908C55.7767 178.636 56.6934 178.609 57.4573 178.226C58.1339 177.886 58.8716 177.779 59.5526 177.462C60.0024 177.208 60.3799 176.839 60.6483 176.391C61.0313 175.883 61.5261 175.473 62.0926 175.197C62.6591 174.92 63.2814 174.783 63.9091 174.798C64.5359 174.828 65.1418 175.038 65.6569 175.404C66.1721 175.771 66.5755 176.278 66.8207 176.869C67.0739 177.543 67.1699 178.404 67.8029 178.721C68.0299 178.837 68.3049 178.859 68.5232 178.998C68.7179 179.145 68.869 179.344 68.9597 179.573C69.4947 180.78 69.5967 182.14 69.2478 183.416C69.0801 183.915 68.9888 184.437 68.9771 184.965C68.9902 185.451 69.1081 185.915 69.1037 186.406Z" fill="#53424D"/>
<path d="M59.5177 189.414C59.5177 189.414 57.0863 187.227 55.7461 187.856C54.406 188.486 56.2874 192.226 59.055 191.708C61.8225 191.19 60.2598 190.012 59.5177 189.414Z" fill="#FFBE9E"/>
<path d="M79.9032 318.217C79.9032 318.217 81.1648 319.73 82.6533 321.788C84.1419 323.845 85.2725 325.97 83.1728 326.947C81.0731 327.924 78.5631 325.523 77.7468 324.1C76.9305 322.676 76.0007 322.832 74.8745 321.868C73.7482 320.904 74.3419 317.405 74.3419 317.405L79.9032 318.217Z" fill="#53424D"/>
<path d="M60.7793 251.024C63.835 254.956 73.9492 318.338 73.9492 318.338C77.0049 320.953 81.5535 318.338 81.5535 318.338C84.8492 286.022 80.7721 238.006 80.7721 238.006C80.7721 238.006 57.7368 254.943 60.7793 251.011V251.024Z" fill="#5A7FE5"/>
<path d="M49.5648 319.262C49.5648 319.262 48.3032 320.77 46.8147 322.832C45.3261 324.894 44.1955 327.014 46.2952 327.991C48.3949 328.969 50.9049 326.568 51.7212 325.144C52.5375 323.72 53.4673 323.876 54.5935 322.912C55.7198 321.948 55.1261 318.45 55.1261 318.45L49.5648 319.262Z" fill="#53424D"/>
<path d="M68.6802 252.046C65.6246 255.982 55.5147 319.36 55.5147 319.36C52.459 321.975 47.9105 319.36 47.9105 319.36C44.6147 287.044 48.1811 239.546 48.1811 239.546C48.1811 239.546 71.7228 255.982 68.6977 252.042L68.6802 252.046Z" fill="#5A7FE5"/>
<path d="M75.4463 215.932H93.0731L82.0335 233.463H65.4106L75.4463 215.932Z" fill="#253369"/>
<path d="M49.1111 231.517C49.1111 231.517 43.6371 220.311 45.5709 214.112C47.5047 207.913 52.6949 208.31 52.6949 208.31C52.6949 208.31 51.6648 223.484 55.2879 229.473C58.911 235.462 49.1111 231.517 49.1111 231.517Z" fill="#FFBE9E"/>
<path d="M51.2104 199.866C41.7946 200.928 44.2741 221.672 44.2741 221.672L54.4669 222.444C54.4669 222.444 60.3905 198.831 51.2104 199.866Z" fill="#E08B03"/>
<path d="M51.0925 232.811C55.999 234.195 69.4265 232.811 69.4265 232.811L67.1304 229.504L50.6036 226.077C50.6036 226.077 46.1031 231.401 51.0925 232.811Z" fill="#FFBE9E"/>
<path d="M66.6724 228.986C66.9511 228.621 67.1884 228.224 67.3795 227.804C67.8685 227.107 68.4727 226.503 69.1649 226.019C69.536 225.733 69.9769 224.68 70.5574 224.84C71.5047 225.099 70.2955 226.626 70.1558 227.072C70.0761 227.262 70.0569 227.473 70.1007 227.674C70.1446 227.876 70.2494 228.059 70.4003 228.197C70.6333 228.331 70.904 228.382 71.1686 228.339C72.0114 228.26 72.8493 228.133 73.6786 227.96C74.1151 227.889 74.5516 227.848 74.9881 227.804C75.3374 227.709 75.6964 227.656 76.0576 227.648C76.1235 227.653 76.1874 227.674 76.2443 227.708C76.3013 227.742 76.3499 227.789 76.3865 227.846C76.423 227.902 76.4466 227.966 76.4555 228.033C76.4643 228.1 76.4581 228.168 76.4374 228.232C76.3414 228.473 76.0925 228.438 75.8874 228.496C75.4159 228.634 74.9532 228.781 74.4905 228.942C74.3901 228.978 73.9056 229.062 73.8619 229.178C73.6567 229.732 74.9576 229.518 75.1715 229.495C75.6929 229.383 76.2355 229.437 76.7255 229.651C76.7582 229.666 76.7876 229.687 76.8117 229.714C76.8358 229.741 76.854 229.773 76.8652 229.808C76.8652 229.924 76.7648 230.004 76.66 230.049C76.0402 230.307 75.3505 230.325 74.735 230.598C74.6346 230.642 74.5254 230.714 74.5167 230.821C74.4818 231.267 75.3548 231.312 75.6386 231.347C75.8175 231.374 76.0402 231.423 76.0751 231.602C76.0852 231.662 76.0778 231.723 76.0537 231.779C76.0296 231.834 75.99 231.882 75.9398 231.914C75.8383 231.977 75.7254 232.018 75.608 232.035C75.2647 232.125 74.9163 232.193 74.5647 232.24C74.3945 232.24 73.8968 232.24 73.8663 232.485C73.8647 232.509 73.8682 232.532 73.8765 232.553C73.8848 232.575 73.8977 232.594 73.9143 232.61C74.0371 232.722 74.1885 232.797 74.3508 232.825C74.508 232.874 74.6782 232.976 74.6957 233.146C74.7131 233.315 74.4992 233.498 74.3072 233.565C73.5963 233.763 72.8608 233.852 72.1245 233.829C71.3475 233.86 70.5705 233.851 69.7935 233.829C68.7616 233.771 67.7339 233.65 66.716 233.467C65.843 233.307 64.8215 233.061 64.2191 232.316C64.0486 232.101 63.9021 231.868 63.7826 231.62C63.6154 231.304 63.4962 230.964 63.429 230.611C63.3596 230.255 63.4269 229.886 63.6167 229.58C63.6433 229.539 63.6774 229.505 63.7171 229.477C63.777 229.46 63.8406 229.46 63.9004 229.477C64.365 229.538 64.8334 229.564 65.3017 229.553C65.8056 229.517 66.2853 229.318 66.6724 228.986Z" fill="#FFBE9E"/>
<path d="M87.7259 225.715C87.32 225.488 86.735 224.51 86.185 224.751C85.2858 225.144 86.6914 226.496 86.8922 226.898C86.9962 227.075 87.0437 227.28 87.028 227.486C87.0124 227.691 86.9344 227.887 86.8049 228.045C86.5918 228.211 86.3308 228.301 86.0628 228.299C85.2179 228.344 84.3714 228.344 83.5266 228.299C83.09 228.299 82.6535 228.299 82.217 228.335C81.8588 228.293 81.497 228.293 81.1388 228.335C81.0741 228.35 81.0136 228.379 80.9617 228.421C80.9099 228.463 80.8681 228.517 80.8395 228.578C80.8109 228.639 80.7962 228.706 80.7966 228.774C80.7971 228.841 80.8126 228.908 80.8419 228.969C80.9685 229.196 81.213 229.12 81.4269 229.152C81.9071 229.219 82.3872 229.299 82.8674 229.384C82.9722 229.384 83.4654 229.415 83.5222 229.522C83.8016 230.04 82.4833 230.017 82.2781 230.026C81.7464 229.99 81.2169 230.124 80.7634 230.41C80.7323 230.428 80.7055 230.453 80.6851 230.484C80.6648 230.514 80.6512 230.548 80.6455 230.584C80.6455 230.696 80.7721 230.763 80.8856 230.79C81.5317 230.955 82.2214 230.874 82.8674 231.053C82.9722 231.084 83.09 231.138 83.1119 231.245C83.2079 231.691 82.3523 231.847 82.0729 231.928C81.8983 231.981 81.6888 232.061 81.667 232.244C81.6659 232.305 81.6822 232.365 81.714 232.417C81.7458 232.468 81.7917 232.509 81.8459 232.535C81.957 232.58 82.0754 232.605 82.1952 232.606C82.5459 232.646 82.8987 232.664 83.2516 232.659C83.4218 232.659 83.9151 232.57 83.9805 232.798C83.9854 232.82 83.9852 232.844 83.9799 232.866C83.9746 232.889 83.9644 232.909 83.95 232.927C83.8418 233.055 83.7014 233.151 83.544 233.204C83.3956 233.275 83.2385 233.405 83.2472 233.57C83.2559 233.735 83.4873 233.891 83.6837 233.931C84.4217 234.024 85.1689 234.004 85.9013 233.873C86.7261 233.773 87.5239 233.51 88.2497 233.097C92.1261 230.807 88.4549 226.112 87.7259 225.715Z" fill="#FFBE9E"/>
<path d="M348.3 32.5479L337.247 47.3156L339.591 30.1513L348.3 32.5479Z" fill="#D6E6F2"/>
<path d="M387.652 33.61H340.346C338.132 33.6094 335.993 32.7869 334.327 31.2955C332.661 29.804 331.581 27.745 331.288 25.501L329.341 10.5771C329.17 9.25729 329.276 7.91528 329.653 6.64087C330.03 5.36646 330.669 4.18909 331.527 3.1876C332.385 2.18611 333.442 1.38362 334.628 0.833877C335.814 0.284136 337.101 -0.000170831 338.404 7.70089e-08H389.604C390.906 -0.000170831 392.193 0.284136 393.379 0.833877C394.565 1.38362 395.623 2.18611 396.481 3.1876C397.339 4.18909 397.978 5.36646 398.354 6.64087C398.731 7.91528 398.837 9.25729 398.666 10.5771L396.719 25.501C396.427 27.7469 395.346 29.8077 393.678 31.2995C392.01 32.7913 389.868 33.6125 387.652 33.61Z" fill="#D6E6F2"/>
<path d="M356.689 16.8028C356.69 17.4438 356.505 18.0707 356.157 18.6041C355.81 19.1375 355.315 19.5535 354.736 19.7994C354.157 20.0453 353.52 20.1101 352.905 19.9856C352.29 19.8611 351.724 19.5529 351.281 19.0999C350.837 18.6469 350.535 18.0696 350.412 17.441C350.29 16.8124 350.352 16.1607 350.592 15.5684C350.832 14.9761 351.238 14.4698 351.759 14.1136C352.28 13.7573 352.893 13.5672 353.52 13.5672C354.36 13.5672 355.165 13.9079 355.76 14.5146C356.354 15.1213 356.688 15.9443 356.689 16.8028Z" fill="#F0F8FF"/>
<path d="M367.17 16.8028C367.171 17.444 366.986 18.071 366.638 18.6046C366.29 19.1381 365.795 19.554 365.216 19.7998C364.637 20.0456 363.999 20.1102 363.384 19.9853C362.769 19.8604 362.204 19.5517 361.76 19.0983C361.317 18.6449 361.015 18.0672 360.893 17.4383C360.771 16.8093 360.834 16.1575 361.074 15.5653C361.315 14.9731 361.721 14.4671 362.243 14.1114C362.765 13.7557 363.378 13.5663 364.006 13.5672C364.845 13.5684 365.649 13.9097 366.242 14.5162C366.835 15.1227 367.169 15.945 367.17 16.8028Z" fill="#F0F8FF"/>
<path d="M377.656 16.8028C377.657 17.4438 377.471 18.0707 377.124 18.6041C376.776 19.1375 376.281 19.5535 375.702 19.7994C375.123 20.0453 374.486 20.1101 373.871 19.9856C373.256 19.8611 372.691 19.5529 372.247 19.0999C371.804 18.6469 371.501 18.0696 371.379 17.441C371.256 16.8124 371.318 16.1607 371.558 15.5684C371.798 14.9761 372.204 14.4698 372.725 14.1136C373.247 13.7573 373.86 13.5672 374.487 13.5672C375.326 13.5672 376.132 13.9079 376.726 14.5146C377.32 15.1213 377.655 15.9443 377.656 16.8028Z" fill="#F0F8FF"/>
<path d="M38.4683 138.997L46.8975 150.261L45.1121 137.171L38.4683 138.997Z" fill="#D6E6F2"/>
<path d="M8.45305 139.809H44.5448C46.2326 139.805 47.862 139.176 49.1315 138.039C50.4011 136.902 51.2249 135.333 51.4506 133.623L52.9348 122.243C53.0632 121.237 52.9804 120.215 52.6921 119.244C52.4038 118.274 51.9165 117.377 51.2627 116.614C50.6089 115.851 49.8036 115.239 48.9004 114.819C47.9972 114.399 47.0168 114.181 46.0246 114.179H6.96887C5.97667 114.181 4.99632 114.399 4.09313 114.819C3.18993 115.239 2.38461 115.851 1.7308 116.614C1.07699 117.377 0.589701 118.274 0.301382 119.244C0.0130625 120.215 -0.0696673 121.237 0.0587014 122.243L1.54288 133.623C1.76873 135.334 2.59317 136.904 3.86362 138.041C5.13406 139.178 6.76446 139.806 8.45305 139.809Z" fill="#D6E6F2"/>
<path d="M32.0732 126.992C32.0732 127.48 32.2148 127.957 32.4801 128.363C32.7453 128.769 33.1223 129.085 33.5634 129.272C34.0045 129.459 34.4899 129.507 34.9582 129.412C35.4264 129.317 35.8566 129.082 36.1942 128.737C36.5318 128.392 36.7617 127.952 36.8548 127.473C36.948 126.994 36.9001 126.498 36.7174 126.047C36.5347 125.596 36.2253 125.211 35.8283 124.94C35.4314 124.668 34.9647 124.524 34.4872 124.524C33.847 124.524 33.233 124.784 32.7803 125.246C32.3276 125.709 32.0732 126.337 32.0732 126.992Z" fill="#F0F8FF"/>
<path d="M24.0762 126.992C24.0753 127.481 24.2164 127.959 24.4816 128.366C24.7468 128.774 25.1242 129.091 25.566 129.279C26.0078 129.467 26.4942 129.516 26.9636 129.422C27.433 129.327 27.8643 129.092 28.203 128.746C28.5416 128.4 28.7724 127.96 28.8661 127.48C28.9597 127 28.9121 126.503 28.7292 126.051C28.5463 125.599 28.2363 125.212 27.8385 124.941C27.4407 124.669 26.973 124.524 26.4945 124.524C25.8539 124.524 25.2394 124.783 24.786 125.246C24.3326 125.709 24.0773 126.337 24.0762 126.992Z" fill="#F0F8FF"/>
<path d="M16.0835 126.992C16.0835 127.48 16.2251 127.957 16.4903 128.363C16.7556 128.769 17.1326 129.085 17.5737 129.272C18.0148 129.459 18.5001 129.507 18.9684 129.412C19.4367 129.317 19.8668 129.082 20.2044 128.737C20.542 128.392 20.7719 127.952 20.8651 127.473C20.9582 126.994 20.9104 126.498 20.7277 126.047C20.545 125.596 20.2356 125.211 19.8386 124.94C19.4416 124.668 18.9749 124.524 18.4975 124.524C17.8572 124.524 17.2432 124.784 16.7905 125.246C16.3378 125.709 16.0835 126.337 16.0835 126.992Z" fill="#F0F8FF"/>
<path d="M291.674 345.356L283.76 337.734C299.719 320.36 307.018 302.646 305.451 285.072C302.923 256.714 278.185 237.765 277.95 237.595L284.406 228.634C285.584 229.526 313.339 250.774 316.311 284.063C318.136 304.945 309.86 325.563 291.674 345.356Z" fill="#C0C7F5"/>
<path d="M295.132 238.31C296.618 231.872 292.718 225.42 286.42 223.9C280.123 222.381 273.813 226.368 272.326 232.807C270.84 239.246 274.74 245.697 281.038 247.217C287.335 248.736 293.646 244.749 295.132 238.31Z" fill="#6F66D1"/>
<path d="M286.815 224.033C288.722 225.862 289.974 228.292 290.371 230.934C290.768 233.576 290.288 236.278 289.006 238.608C287.725 240.939 285.717 242.763 283.303 243.789C280.889 244.816 278.208 244.986 275.688 244.272C276.981 245.524 278.536 246.457 280.235 247.002C281.933 247.547 283.731 247.689 285.492 247.416C287.252 247.144 288.928 246.464 290.393 245.43C291.858 244.395 293.073 243.033 293.945 241.446C294.817 239.86 295.324 238.09 295.427 236.273C295.53 234.456 295.226 232.639 294.539 230.96C293.851 229.281 292.798 227.784 291.46 226.584C290.122 225.383 288.533 224.511 286.815 224.033Z" fill="#6658C5"/>
<path d="M319.965 284.732C319.965 286.528 319.444 288.283 318.468 289.776C317.493 291.268 316.106 292.432 314.484 293.119C312.861 293.806 311.076 293.986 309.354 293.636C307.631 293.285 306.049 292.421 304.808 291.151C303.566 289.882 302.72 288.264 302.378 286.503C302.035 284.742 302.211 282.917 302.883 281.259C303.555 279.6 304.693 278.182 306.153 277.185C307.613 276.187 309.33 275.655 311.086 275.655C313.441 275.655 315.699 276.611 317.364 278.314C319.029 280.016 319.965 282.325 319.965 284.732Z" fill="#6F66D1"/>
<path d="M313.443 275.985C314.738 277.233 315.637 278.849 316.021 280.626C316.406 282.402 316.259 284.255 315.6 285.945C314.941 287.634 313.8 289.083 312.326 290.101C310.851 291.119 309.111 291.66 307.332 291.654C306.541 291.65 305.754 291.539 304.992 291.324C305.972 292.268 307.149 292.972 308.434 293.382C309.72 293.792 311.079 293.897 312.41 293.69C313.741 293.483 315.009 292.969 316.117 292.187C317.225 291.405 318.144 290.375 318.805 289.176C319.465 287.976 319.85 286.639 319.931 285.265C320.011 283.891 319.784 282.516 319.267 281.245C318.751 279.974 317.958 278.84 316.949 277.928C315.94 277.017 314.741 276.353 313.443 275.985Z" fill="#6658C5"/>
<path d="M121.373 294.805C111.478 294.805 100.869 292.885 89.5459 289.044L92.977 278.48C115.104 285.995 133.892 285.33 148.817 276.503C172.931 262.244 179.348 231.343 179.409 231.03L190.073 233.262C189.78 234.73 182.569 269.411 154.278 286.138C144.482 291.913 133.482 294.805 121.373 294.805Z" fill="#C0C7F5"/>
<path d="M190.675 244.044C195.251 239.366 195.251 231.782 190.675 227.104C186.1 222.426 178.681 222.426 174.106 227.104C169.53 231.782 169.53 239.366 174.106 244.044C178.681 248.722 186.1 248.722 190.675 244.044Z" fill="#6F66D1"/>
<path d="M185.481 224.033C187.387 225.862 188.639 228.292 189.036 230.934C189.433 233.576 188.953 236.278 187.672 238.608C186.391 240.939 184.383 242.763 181.969 243.789C179.555 244.816 176.874 244.986 174.354 244.272C175.647 245.524 177.201 246.457 178.9 247.002C180.599 247.547 182.397 247.689 184.157 247.416C185.917 247.144 187.594 246.464 189.059 245.43C190.523 244.395 191.738 243.033 192.611 241.446C193.483 239.86 193.99 238.09 194.093 236.273C194.196 234.456 193.892 232.639 193.204 230.96C192.517 229.281 191.464 227.784 190.126 226.584C188.787 225.383 187.199 224.511 185.481 224.033Z" fill="#6658C5"/>
<path d="M164.117 279.649C164.118 281.445 163.598 283.201 162.623 284.694C161.647 286.188 160.261 287.352 158.638 288.039C157.016 288.727 155.23 288.907 153.507 288.557C151.784 288.207 150.202 287.342 148.96 286.072C147.718 284.803 146.872 283.185 146.53 281.423C146.187 279.662 146.364 277.837 147.036 276.178C147.709 274.519 148.847 273.101 150.308 272.104C151.769 271.107 153.486 270.575 155.243 270.576C157.596 270.576 159.854 271.532 161.518 273.234C163.182 274.935 164.117 277.243 164.117 279.649Z" fill="#6F66D1"/>
<path d="M157.605 270.906C159.049 272.293 159.997 274.134 160.297 276.136C160.598 278.138 160.233 280.185 159.263 281.951C158.292 283.716 156.77 285.098 154.941 285.876C153.111 286.654 151.08 286.782 149.171 286.241C150.15 287.189 151.328 287.896 152.615 288.308C153.902 288.721 155.263 288.828 156.597 288.621C157.93 288.415 159.2 287.9 160.309 287.117C161.419 286.333 162.339 285.301 163 284.1C163.661 282.898 164.045 281.558 164.124 280.181C164.202 278.805 163.972 277.429 163.452 276.157C162.932 274.885 162.135 273.751 161.122 272.841C160.108 271.931 158.905 271.27 157.605 270.906Z" fill="#6658C5"/>
<mask id="mask0_7_1346" style="mask-type:luminance" maskUnits="userSpaceOnUse" x="117" y="91" width="215" height="208">
<path d="M331.808 91.5964H117.086V298.3H331.808V91.5964Z" fill="white"/>
</mask>
<g mask="url(#mask0_7_1346)">
<path d="M260.803 189.387H207.87C207.323 189.387 206.879 189.841 206.879 190.4V208.6C206.879 209.159 207.323 209.613 207.87 209.613H260.803C261.35 209.613 261.794 209.159 261.794 208.6V190.4C261.794 189.841 261.35 189.387 260.803 189.387Z" fill="#6658C5"/>
<path d="M253.435 189.387H207.325C207.079 189.387 206.879 189.591 206.879 189.842V209.158C206.879 209.409 207.079 209.613 207.325 209.613H253.435C253.681 209.613 253.88 209.409 253.88 209.158V189.842C253.88 189.591 253.681 189.387 253.435 189.387Z" fill="#6F66D1"/>
<path d="M169.282 168.465C169.282 170.502 169.873 172.494 170.98 174.188C172.087 175.882 173.66 177.202 175.501 177.981C177.342 178.761 179.368 178.965 181.322 178.568C183.277 178.17 185.072 177.189 186.481 175.749C187.89 174.308 188.849 172.473 189.238 170.475C189.627 168.477 189.427 166.406 188.665 164.523C187.902 162.641 186.611 161.033 184.954 159.901C183.297 158.769 181.349 158.165 179.357 158.165C176.685 158.165 174.122 159.25 172.233 161.182C170.343 163.113 169.282 165.733 169.282 168.465Z" fill="#6F66D1"/>
<path d="M238.296 143.861H232.359C231.814 143.861 230.382 143.415 230.382 142.853L231.377 114.527C231.377 114.258 231.482 114 231.667 113.81C231.853 113.62 232.105 113.514 232.368 113.514H238.305C238.568 113.514 238.82 113.62 239.005 113.81C239.191 114 239.296 114.258 239.296 114.527L240.287 142.853C240.278 143.406 238.842 143.861 238.296 143.861Z" fill="#6658C5"/>
<path d="M261.056 134.253H217.517C213.009 134.253 209.354 137.989 209.354 142.598V153.22C209.354 157.829 213.009 161.566 217.517 161.566H261.056C265.565 161.566 269.219 157.829 269.219 153.22V142.598C269.219 137.989 265.565 134.253 261.056 134.253Z" fill="#6658C5"/>
<path d="M259.297 134.253H207.403C205.202 134.253 203.418 136.077 203.418 138.327V157.491C203.418 159.741 205.202 161.566 207.403 161.566H259.297C261.498 161.566 263.283 159.741 263.283 157.491V138.327C263.283 136.077 261.498 134.253 259.297 134.253Z" fill="#6F66D1"/>
<path d="M277.631 143.861H206.88C199.23 143.861 193.029 150.201 193.029 158.022V180.787C193.029 188.608 199.23 194.948 206.88 194.948H277.631C285.281 194.948 291.482 188.608 291.482 180.787V158.022C291.482 150.201 285.281 143.861 277.631 143.861Z" fill="#C0C7F5"/>
<path d="M266.744 143.861H195.992C188.343 143.861 182.142 150.201 182.142 158.022V180.787C182.142 188.608 188.343 194.948 195.992 194.948H266.744C274.394 194.948 280.595 188.608 280.595 180.787V158.022C280.595 150.201 274.394 143.861 266.744 143.861Z" fill="#D1D5FC"/>
<path d="M264.523 154.992H200.201C196.24 154.992 193.029 158.275 193.029 162.324V174.972C193.029 179.022 196.24 182.305 200.201 182.305H264.523C268.484 182.305 271.695 179.022 271.695 174.972V162.324C271.695 158.275 268.484 154.992 264.523 154.992Z" fill="#5250BA"/>
<path d="M264.95 158.151H199.773C196.048 158.151 193.029 161.239 193.029 165.047V175.409C193.029 179.218 196.048 182.305 199.773 182.305H264.95C268.675 182.305 271.695 179.218 271.695 175.409V165.047C271.695 161.239 268.675 158.151 264.95 158.151Z" fill="#6F66D1"/>
<path d="M212.816 165.105C212.816 165.805 212.613 166.489 212.233 167.071C211.853 167.653 211.312 168.106 210.679 168.374C210.047 168.642 209.351 168.712 208.679 168.576C208.008 168.439 207.391 168.102 206.907 167.607C206.423 167.112 206.093 166.482 205.96 165.795C205.826 165.109 205.895 164.397 206.157 163.75C206.419 163.104 206.862 162.551 207.432 162.162C208.001 161.773 208.67 161.566 209.355 161.566C210.273 161.566 211.153 161.938 211.802 162.602C212.452 163.266 212.816 164.166 212.816 165.105Z" fill="white"/>
<path d="M256.355 165.105C256.356 165.806 256.153 166.492 255.773 167.075C255.392 167.658 254.851 168.113 254.217 168.382C253.584 168.651 252.886 168.721 252.214 168.585C251.541 168.448 250.923 168.111 250.438 167.615C249.953 167.119 249.623 166.487 249.489 165.799C249.356 165.112 249.425 164.399 249.688 163.751C249.95 163.103 250.395 162.55 250.966 162.161C251.537 161.772 252.207 161.565 252.893 161.566C253.811 161.566 254.692 161.938 255.341 162.602C255.99 163.266 256.355 164.166 256.355 165.105Z" fill="white"/>
<path d="M306.189 168.465C306.189 170.502 305.598 172.494 304.491 174.188C303.384 175.882 301.81 177.202 299.969 177.981C298.128 178.761 296.102 178.965 294.148 178.568C292.194 178.17 290.398 177.189 288.989 175.749C287.58 174.308 286.621 172.473 286.232 170.475C285.843 168.477 286.043 166.406 286.805 164.523C287.568 162.641 288.859 161.033 290.516 159.901C292.173 158.769 294.121 158.165 296.114 158.165C298.786 158.165 301.348 159.25 303.238 161.182C305.127 163.113 306.189 165.733 306.189 168.465Z" fill="#6658C5"/>
<path d="M302.234 168.465C302.234 170.502 301.643 172.494 300.536 174.188C299.429 175.882 297.855 177.202 296.014 177.981C294.174 178.761 292.148 178.965 290.193 178.568C288.239 178.17 286.444 177.189 285.035 175.749C283.626 174.308 282.666 172.473 282.278 170.475C281.889 168.477 282.088 166.406 282.851 164.523C283.613 162.641 284.905 161.033 286.562 159.901C288.218 158.769 290.166 158.165 292.159 158.165C294.831 158.166 297.393 159.252 299.282 161.183C301.171 163.114 302.233 165.734 302.234 168.465Z" fill="#6F66D1"/>
<path d="M239.038 169.407H223.703C223.679 170.452 223.859 171.492 224.234 172.464C224.608 173.437 225.169 174.324 225.883 175.072C226.598 175.82 227.451 176.414 228.394 176.82C229.336 177.226 230.348 177.435 231.371 177.435C232.393 177.435 233.406 177.226 234.348 176.82C235.291 176.414 236.144 175.82 236.859 175.072C237.573 174.324 238.134 173.437 238.508 172.464C238.883 171.492 239.063 170.452 239.038 169.407Z" fill="white"/>
<path d="M246.075 333.065H221.036C210.795 333.035 200.982 328.862 193.741 321.458C186.5 314.054 182.419 304.021 182.391 293.551V252.609C182.391 223.399 205.766 199.5 234.337 199.5C262.907 199.5 286.283 223.399 286.283 252.609V291.953C286.288 314.562 268.194 333.065 246.075 333.065Z" fill="#D1D5FC"/>
<path d="M242.111 221.752H224.585C208.449 221.752 195.368 235.125 195.368 251.622V289.53C195.368 306.027 208.449 319.4 224.585 319.4H242.111C258.247 319.4 271.328 306.027 271.328 289.53V251.622C271.328 235.125 258.247 221.752 242.111 221.752Z" fill="#6F66D1"/>
<path d="M232.115 235.578C238.856 235.578 244.32 229.991 244.32 223.1C244.32 216.208 238.856 210.622 232.115 210.622C225.374 210.622 219.91 216.208 219.91 223.1C219.91 229.991 225.374 235.578 232.115 235.578Z" fill="white"/>
<path d="M241.099 223.1C241.099 224.918 240.573 226.695 239.586 228.207C238.598 229.719 237.195 230.897 235.552 231.593C233.91 232.289 232.102 232.471 230.358 232.117C228.614 231.763 227.012 230.887 225.755 229.602C224.498 228.317 223.642 226.679 223.295 224.896C222.948 223.113 223.127 221.265 223.808 219.586C224.488 217.906 225.641 216.471 227.12 215.462C228.599 214.453 230.337 213.914 232.115 213.915C233.295 213.915 234.463 214.153 235.553 214.614C236.643 215.076 237.633 215.752 238.467 216.605C239.302 217.458 239.963 218.471 240.415 219.585C240.866 220.699 241.099 221.894 241.099 223.1Z" fill="#D1D5FC"/>
<path d="M227.169 244.772C227.17 245.323 227.011 245.862 226.712 246.32C226.413 246.779 225.988 247.136 225.491 247.348C224.993 247.559 224.445 247.615 223.916 247.508C223.388 247.401 222.902 247.136 222.521 246.747C222.139 246.358 221.879 245.861 221.774 245.321C221.668 244.781 221.722 244.221 221.928 243.711C222.134 243.202 222.483 242.767 222.931 242.461C223.379 242.155 223.906 241.991 224.445 241.991C225.167 241.991 225.859 242.284 226.37 242.805C226.88 243.327 227.168 244.034 227.169 244.772Z" fill="#D1D5FC"/>
<path d="M236.074 244.772C236.075 245.323 235.916 245.862 235.617 246.32C235.319 246.779 234.893 247.136 234.396 247.348C233.898 247.559 233.35 247.615 232.822 247.508C232.293 247.401 231.807 247.136 231.426 246.747C231.044 246.358 230.785 245.861 230.679 245.321C230.574 244.781 230.627 244.221 230.833 243.711C231.039 243.202 231.389 242.767 231.837 242.461C232.285 242.155 232.811 241.991 233.35 241.991C234.072 241.991 234.764 242.284 235.275 242.805C235.786 243.327 236.073 244.034 236.074 244.772Z" fill="#F2B622"/>
<path d="M242.255 247.556C243.76 247.556 244.979 246.31 244.979 244.772C244.979 243.234 243.76 241.987 242.255 241.987C240.751 241.987 239.531 243.234 239.531 244.772C239.531 246.31 240.751 247.556 242.255 247.556Z" fill="#6658C5"/>
<g style="mix-blend-mode:overlay" opacity="0.15">
<path d="M246.075 333.065C268.193 333.065 286.287 314.562 286.287 291.953V252.609C286.287 251.551 286.248 250.498 286.187 249.453C273.921 288.727 252.893 328.991 194.425 322.123C201.589 329.144 211.129 333.065 221.053 333.065H246.075Z" fill="black"/>
</g>
<path d="M244.643 111.648C244.644 113.514 244.104 115.339 243.09 116.891C242.077 118.443 240.636 119.653 238.95 120.368C237.263 121.082 235.408 121.27 233.617 120.906C231.827 120.543 230.182 119.645 228.891 118.325C227.6 117.006 226.721 115.325 226.365 113.495C226.008 111.665 226.191 109.767 226.889 108.043C227.587 106.319 228.77 104.845 230.288 103.808C231.805 102.771 233.59 102.218 235.415 102.218C236.627 102.217 237.827 102.461 238.946 102.935C240.066 103.408 241.083 104.103 241.94 104.978C242.797 105.854 243.477 106.894 243.941 108.038C244.405 109.183 244.643 110.409 244.643 111.648Z" fill="#F2B622"/>
<path d="M237.851 102.562C239.355 104.001 240.343 105.916 240.657 107.998C240.971 110.08 240.593 112.209 239.583 114.046C238.573 115.882 236.99 117.319 235.087 118.126C233.183 118.933 231.07 119.065 229.085 118.499C230.103 119.484 231.327 120.219 232.665 120.648C234.003 121.078 235.418 121.189 236.804 120.975C238.19 120.76 239.51 120.226 240.664 119.411C241.817 118.597 242.774 117.524 243.461 116.275C244.148 115.026 244.548 113.633 244.629 112.202C244.71 110.771 244.471 109.34 243.93 108.018C243.39 106.696 242.561 105.517 241.507 104.572C240.454 103.626 239.203 102.939 237.851 102.562Z" fill="#E3AB1F"/>
<g style="mix-blend-mode:overlay" opacity="0.15">
<path d="M264.518 182.305C266.418 182.299 268.239 181.524 269.583 180.15C270.927 178.777 271.684 176.915 271.69 174.972V162.342C271.685 160.425 270.947 158.585 269.634 157.216C268.321 155.847 266.537 155.057 264.662 155.014C261.798 169.425 250.418 182.322 195.958 180.899C197.184 181.833 198.671 182.338 200.201 182.34L264.518 182.305Z" fill="black"/>
</g>
<path d="M189.205 152.8H187.943C187.198 152.8 186.594 153.418 186.594 154.179V183.456C186.594 184.218 187.198 184.835 187.943 184.835H189.205C189.95 184.835 190.554 184.218 190.554 183.456V154.179C190.554 153.418 189.95 152.8 189.205 152.8Z" fill="#E2E7FD"/>
</g>
<path d="M306.459 325.34C306.459 328.891 305.429 332.361 303.5 335.314C301.571 338.266 298.829 340.567 295.621 341.926C292.413 343.286 288.882 343.642 285.476 342.95C282.07 342.259 278.941 340.55 276.484 338.041C274.028 335.531 272.354 332.333 271.675 328.851C270.996 325.369 271.342 321.76 272.669 318.479C273.996 315.198 276.245 312.393 279.131 310.418C282.017 308.444 285.411 307.389 288.884 307.386C291.191 307.384 293.477 307.847 295.609 308.749C297.741 309.65 299.678 310.973 301.31 312.64C302.943 314.307 304.237 316.287 305.121 318.466C306.004 320.646 306.459 322.981 306.459 325.34Z" fill="#FEC000"/>
<path d="M271.895 330.285L288.885 360.495L305.472 331.004L271.895 330.285Z" fill="#FEC000"/>
<path d="M297.143 325.519C297.144 327.231 296.648 328.904 295.719 330.328C294.789 331.752 293.467 332.862 291.92 333.517C290.373 334.173 288.671 334.344 287.029 334.011C285.387 333.677 283.878 332.853 282.694 331.642C281.51 330.432 280.704 328.889 280.377 327.21C280.051 325.531 280.219 323.791 280.86 322.21C281.501 320.628 282.587 319.277 283.979 318.326C285.372 317.376 287.009 316.869 288.683 316.87C290.927 316.871 293.078 317.782 294.664 319.404C296.25 321.026 297.142 323.225 297.143 325.519Z" fill="white"/>
</svg>
