<svg width="256" height="238" viewBox="0 0 256 238" fill="none" xmlns="http://www.w3.org/2000/svg">
<g clip-path="url(#clip0_6_831)">
<g opacity="0.39">
<path d="M254.184 116.702C254.184 74.45 221.484 40.199 181.155 40.199C180.529 40.199 179.908 40.23 179.288 40.246C166.552 17.832 143.208 2.80298 116.496 2.80298C76.163 2.80298 43.466 37.055 43.466 79.308C43.466 79.858 43.496 80.396 43.508 80.945C43.508 103.82 6.56201 118.948 6.56201 147.447C6.56201 189.697 39.26 223.946 79.592 223.946C81.885 223.946 84.151 223.822 86.392 223.605C115.976 223.605 120.054 237.209 142.741 237.209C180.023 237.209 210.749 222.168 215.195 184.378C225.461 158.004 254.184 146.073 254.184 116.702Z" fill="#D6D6D6"/>
</g>
<path d="M120.664 231.994C120.664 231.994 139.965 241.098 149.893 235.359L154.062 229.875L120.664 231.994Z" fill="#9FD4FF"/>
<path d="M222.762 83.92V56.606C222.762 53.753 225.022 50.837 227.784 50.125L238.674 47.392V31.697C236.085 32.348 232.97 33.118 230.864 33.625L222.64 35.6C219.868 36.267 216.966 37.533 216.195 38.413C215.424 39.294 214.794 42.348 214.794 45.202V75.273C214.794 78.126 214.794 80.46 214.794 80.46C214.794 80.46 212.461 80.39 209.609 80.303C209.609 80.303 204.091 80.136 199.628 84.81C194.218 90.473 193.402 98.474 197.808 102.681C202.212 106.89 210.892 104.987 216.3 99.325C216.298 99.324 222.762 93.186 222.762 83.92Z" fill="#FFD1D1"/>
<path d="M204.085 106.962C201.015 106.962 198.365 105.982 196.425 104.127C193.839 101.657 192.639 98.092 193.046 94.089C193.435 90.274 195.259 86.487 198.181 83.429C202.841 78.55 208.458 78.302 209.537 78.302C209.557 78.302 209.648 78.303 209.669 78.304L212.793 78.399V45.202C212.793 43.148 213.189 38.811 214.689 37.096C216.13 35.451 220.213 34.126 222.171 33.656L230.397 31.68C232.496 31.175 235.603 30.407 238.186 29.758C238.783 29.607 239.417 29.741 239.903 30.12C240.389 30.499 240.674 31.081 240.674 31.697V47.392C240.674 48.309 240.05 49.109 239.161 49.332L228.271 52.065C226.407 52.545 224.761 54.669 224.761 56.606V83.92C224.761 93.519 218.55 99.92 217.719 100.733C214.036 104.576 208.815 106.962 204.085 106.962ZM209.547 82.302C209.051 82.302 204.684 82.411 201.073 86.192C198.761 88.611 197.325 91.56 197.025 94.495C196.746 97.243 197.513 99.637 199.187 101.236C200.681 102.664 202.675 102.964 204.084 102.964C207.769 102.964 211.895 101.041 214.852 97.945C214.871 97.925 214.89 97.906 214.91 97.887C215.148 97.655 220.762 92.115 220.762 83.921V56.606C220.762 52.828 223.627 49.131 227.285 48.189L236.674 45.833V34.259C234.749 34.738 232.797 35.217 231.332 35.57L223.106 37.546C220.315 38.217 218.094 39.334 217.687 39.744C217.399 40.166 216.792 42.468 216.792 45.203V80.46C216.792 81.001 216.573 81.519 216.185 81.895C215.797 82.271 215.274 82.469 214.733 82.459L209.547 82.302Z" fill="#CCCCDE"/>
<g opacity="0.1">
<path d="M150.823 147.125L178.185 158.425L181.565 150.239L154.203 138.94L150.823 147.125Z" fill="black"/>
</g>
<path d="M182.387 143.812C182.387 143.812 182.866 145.845 185.707 144.387C185.707 144.387 194.495 142.241 195.922 155.76C195.922 155.76 206.527 157.027 203.904 171.607C203.904 171.607 206.659 172.009 207.667 178.574C208.937 186.837 197.76 196.04 197.76 196.04C191.512 201.845 182.601 204.045 182.601 204.045C177.069 206.061 169.671 206.219 161.897 213.44L154.033 220.748L119.762 183.849L127.629 176.542C130.949 173.658 131.5 168.558 131.527 165.722C129.49 157.461 132.119 151.144 132.119 151.144L135.123 141.665C137.418 130.408 148.857 127.471 152.862 127.619C158.432 127.119 160.909 128.747 161.812 132.629C162.226 137.187 154.826 137.174 154.488 146.308C154.488 146.308 156.881 152.443 162.414 141.988C162.414 141.988 165.604 132.547 173.962 135.53C182.32 138.509 182.387 143.812 182.387 143.812Z" fill="#FFC9C9"/>
<path d="M154.032 222.747C154.008 222.747 153.983 222.747 153.959 222.746C153.429 222.726 152.928 222.497 152.566 222.108L118.296 185.209C117.935 184.82 117.743 184.304 117.763 183.773C117.783 183.244 118.012 182.743 118.401 182.381L126.268 175.074C128.966 172.729 129.473 168.449 129.523 165.943C127.574 157.717 129.89 151.342 130.235 150.466L133.185 141.156C135.644 129.413 147.292 125.611 152.566 125.611C152.648 125.611 152.727 125.612 152.804 125.613C153.469 125.556 154.104 125.528 154.694 125.528C159.754 125.528 162.719 127.702 163.76 132.173C163.781 132.263 163.795 132.354 163.804 132.445C164.072 135.398 162.2 137.062 160.55 138.531C158.71 140.168 156.81 141.859 156.515 145.856C156.599 145.972 156.692 146.074 156.752 146.103C156.737 146.086 158.097 145.823 160.58 141.171C161.038 139.941 163.945 132.942 170.823 132.942C172.052 132.942 173.334 133.177 174.634 133.641C182.126 136.313 183.863 140.862 184.265 142.833C184.4 142.788 184.574 142.717 184.793 142.604C184.933 142.533 185.079 142.477 185.231 142.44C185.356 142.41 186.026 142.258 187.011 142.258C189.75 142.258 196.101 143.45 197.729 154.14C199.322 154.645 201.813 155.802 203.714 158.372C205.961 161.408 206.759 165.491 206.095 170.524C207.385 171.545 208.942 173.704 209.642 178.265C211.037 187.342 200.022 196.751 199.078 197.538C192.834 203.314 184.301 205.665 183.187 205.953C181.735 206.475 180.209 206.869 178.597 207.285C173.96 208.481 168.705 209.838 163.256 214.899L155.392 222.206C155.024 222.557 154.536 222.747 154.032 222.747ZM122.588 183.952L154.137 217.92L160.535 211.975C166.726 206.224 172.755 204.668 177.598 203.418C179.15 203.018 180.616 202.64 181.915 202.166C181.981 202.142 182.05 202.121 182.118 202.104C182.203 202.083 190.62 199.943 196.397 194.576C196.425 194.549 196.456 194.522 196.486 194.498C199.35 192.133 206.586 184.717 205.689 178.879C205.017 174.506 203.619 173.648 203.435 173.553C202.971 173.442 202.56 173.167 202.28 172.777C201.964 172.338 201.839 171.788 201.934 171.255C202.756 166.688 202.273 163.155 200.499 160.758C198.577 158.16 195.711 157.752 195.683 157.749C194.756 157.638 194.03 156.9 193.931 155.973C193.271 149.713 190.813 146.265 187.011 146.265C186.718 146.265 186.484 146.288 186.335 146.309C185.467 146.717 184.673 146.916 183.915 146.916C181.955 146.916 180.738 145.546 180.438 144.274C180.404 144.131 180.386 143.986 180.384 143.839C180.376 143.718 180.074 139.833 173.287 137.413C172.42 137.103 171.591 136.946 170.821 136.946C166.278 136.946 164.325 142.571 164.305 142.628C164.271 142.73 164.229 142.828 164.178 142.923C161.588 147.817 159.21 150.096 156.695 150.096C154.423 150.096 153.065 148.172 152.622 147.034C152.522 146.779 152.476 146.507 152.486 146.233C152.712 140.151 155.704 137.489 157.888 135.545C159.311 134.279 159.846 133.728 159.825 132.928C159.29 130.774 158.241 129.531 154.691 129.531C154.184 129.531 153.629 129.558 153.038 129.611C152.953 129.618 152.867 129.621 152.785 129.618L152.563 129.614C149.829 129.614 139.187 131.726 137.08 142.064C137.065 142.133 137.048 142.202 137.026 142.269L134.022 151.748C134.004 151.804 133.985 151.858 133.962 151.912C133.941 151.964 131.624 157.778 133.465 165.243C133.506 165.406 133.526 165.573 133.524 165.741C133.494 168.877 132.858 174.646 128.937 178.052L122.588 183.952Z" fill="#6E6E96"/>
<path opacity="0.2" d="M155.02 189.977C155.02 189.977 173.294 200.729 189.315 182.698C196.112 175.046 195.674 175.133 189.315 169.113C182.958 163.092 185.606 163.315 184.016 158.432C182.426 153.551 175.291 163.223 173.294 155.207C171.298 147.193 170.825 138.915 170.825 138.915C170.825 138.915 190.385 141.618 193.152 148.689C195.921 155.759 204.073 164.037 203.906 171.607C203.738 179.175 210.194 191.478 189.758 201.345C189.758 201.345 168.642 221.484 155.02 189.977Z" fill="#BF9797"/>
<path d="M169.32 211.213L130.217 169.109L58.0771 220.566C64.8791 222.759 72.1001 223.946 79.5901 223.946C81.8831 223.946 84.1501 223.822 86.3901 223.605C103.503 223.605 112.081 228.156 120.664 231.994L153.406 231.848L169.32 211.213Z" fill="#9FD4FF"/>
<path d="M139.333 157.505C139.333 157.505 158.861 174.563 171.969 149.484C171.969 149.484 174.404 141.961 170.4 139.741C166.396 137.521 159.962 162.783 139.333 157.505Z" fill="#FFD4D4"/>
<path opacity="0.2" d="M58.0742 220.57L125.856 191.174L144.223 210.184L123.271 233.106C130.485 237.178 139.485 238.178 147.193 237.131L167.116 210.45L129.678 172.373L58.0742 220.57Z" fill="#6E6E96"/>
<path d="M153.955 155.412C161.652 150.734 170.188 140.105 164.307 134.209L131.996 101.827L111.042 122.738L142.184 153.941C142.184 153.939 147.725 160.009 153.955 155.412Z" fill="#F0F0FF"/>
<path d="M149.077 159.133C145.452 159.133 142.625 157.047 141.381 155.942H141.355L141.042 155.629C140.904 155.496 140.805 155.395 140.748 155.334L108.214 122.736L132 98.999L165.724 132.796C167.684 134.762 168.536 137.323 168.188 140.206C167.428 146.484 161.028 153.43 155.07 157.076C153.191 158.44 151.176 159.133 149.077 159.133ZM143.053 151.941L143.649 152.579C143.672 152.604 146.066 155.133 149.078 155.133C150.349 155.133 151.556 154.697 152.768 153.803L152.916 153.703C158.015 150.604 163.635 144.53 164.215 139.725C164.416 138.059 163.984 136.716 162.891 135.621L131.994 104.656L113.871 122.741L143.013 151.941H143.053Z" fill="#6E6E96"/>
<path d="M113 151.233C139.241 151.233 160.513 129.961 160.513 103.72C160.513 77.4793 139.241 56.207 113 56.207C86.7591 56.207 65.4868 77.4793 65.4868 103.72C65.4868 129.961 86.7591 151.233 113 151.233Z" fill="#E88989"/>
<path d="M113 153.232C85.6978 153.232 63.4858 131.021 63.4858 103.719C63.4858 76.418 85.6978 54.206 113 54.206C140.302 54.206 162.513 76.417 162.513 103.719C162.513 131.021 140.302 153.232 113 153.232ZM113 58.207C87.9038 58.207 67.4858 78.624 67.4858 103.72C67.4858 128.816 87.9038 149.232 113 149.232C138.096 149.232 158.513 128.815 158.513 103.719C158.513 78.623 138.096 58.207 113 58.207Z" fill="#6E6E96"/>
<path d="M109.452 131.78C128.465 131.78 143.879 116.367 143.879 97.353C143.879 78.3395 128.465 62.926 109.452 62.926C90.4384 62.926 75.0249 78.3395 75.0249 97.353C75.0249 116.367 90.4384 131.78 109.452 131.78Z" fill="#FFA1A1"/>
<path d="M103.227 130.266L144.225 89.268L141.275 81.622L95.0371 127.862C95.0351 127.861 99.3151 134.179 103.227 130.266Z" fill="#E88989"/>
<path d="M29.4672 199.229V178.786C29.4672 176.651 31.1582 174.469 33.2262 173.934L41.3772 171.888V160.141C39.4392 160.628 37.1062 161.204 35.5322 161.583L29.3762 163.062C27.3002 163.56 25.1292 164.507 24.5522 165.166C23.9752 165.826 23.5032 168.111 23.5032 170.247V192.755C23.5032 194.89 23.5032 196.638 23.5032 196.638C23.5032 196.638 21.7572 196.585 19.6232 196.521C19.6232 196.521 15.4932 196.396 12.1502 199.894C8.10117 204.131 7.49217 210.122 10.7892 213.269C14.0852 216.419 20.5822 214.997 24.6302 210.757C24.6302 210.757 29.4672 206.163 29.4672 199.229Z" fill="white"/>
<path d="M15.4891 216.978C13.0581 216.978 10.9551 216.196 9.40708 214.715C7.35708 212.758 6.40408 209.943 6.72508 206.788C7.02708 203.821 8.44008 200.882 10.7041 198.513C14.3341 194.714 18.7251 194.521 19.5691 194.521C19.5891 194.521 19.6631 194.522 19.6831 194.523L21.5021 194.578V170.249C21.5021 168.528 21.8271 165.245 23.0451 163.852C24.2061 162.527 27.2771 161.51 28.9091 161.119L35.0641 159.64C36.6321 159.262 38.9571 158.688 40.8881 158.202C41.4861 158.049 42.1191 158.184 42.6061 158.564C43.0921 158.943 43.3761 159.525 43.3761 160.141V171.888C43.3761 172.805 42.7521 173.605 41.8631 173.827L33.7121 175.873C32.5431 176.176 31.4661 177.565 31.4661 178.785V199.228C31.4661 206.715 26.5781 211.655 26.0211 212.194C23.2271 215.123 19.1701 216.978 15.4891 216.978ZM19.5631 198.521C19.2281 198.521 16.1561 198.599 13.5971 201.277C11.9451 203.006 10.9181 205.107 10.7051 207.194C10.5121 209.092 11.0321 210.737 12.1701 211.824C13.1691 212.778 14.5251 212.978 15.4891 212.978C18.1141 212.978 21.0631 211.598 23.1841 209.377C23.2031 209.356 23.2231 209.337 23.2421 209.317C23.4151 209.151 27.4671 205.167 27.4671 199.228V178.785C27.4671 175.74 29.7771 172.759 32.7251 171.997L39.3771 170.328V162.701C38.1451 163.006 36.9391 163.302 36.0011 163.527L29.8441 165.006C28.0421 165.439 26.5181 166.153 26.0821 166.474C25.8561 166.949 25.5031 168.475 25.5031 170.247V196.638C25.5031 197.179 25.2841 197.697 24.8961 198.074C24.5081 198.45 23.9871 198.661 23.4431 198.637L19.5631 198.521Z" fill="#CCCCDE"/>
<path d="M148.16 239.092C147.715 239.092 147.266 238.945 146.895 238.641C146.04 237.942 145.914 236.681 146.612 235.827L166.668 211.298L129.947 171.759L59.2358 222.199C58.3368 222.84 57.0878 222.633 56.4458 221.732C55.8048 220.833 56.0138 219.585 56.9128 218.943L129.056 167.482C129.874 166.898 130.998 167.013 131.683 167.749L170.786 209.853C171.466 210.585 171.501 211.707 170.869 212.48L149.711 238.359C149.315 238.841 148.74 239.092 148.16 239.092Z" fill="#6E6E96"/>
<path d="M84.4358 143.854C83.9238 143.854 83.4128 143.659 83.0218 143.268C82.2408 142.487 82.2408 141.221 83.0218 140.44L149.626 73.835C150.407 73.054 151.673 73.054 152.454 73.835C153.235 74.616 153.235 75.882 152.454 76.663L85.8498 143.268C85.4598 143.658 84.9478 143.854 84.4358 143.854Z" fill="#6E6E96"/>
<path d="M195.988 180.79C195.2 180.79 194.453 180.321 194.136 179.547C193.717 178.526 194.206 177.358 195.229 176.939C200.122 174.935 202.072 170.811 202.091 170.769C202.555 169.765 203.744 169.329 204.745 169.792C205.748 170.255 206.185 171.443 205.722 172.446C205.618 172.674 203.076 178.046 196.744 180.639C196.496 180.741 196.24 180.79 195.988 180.79Z" fill="#6E6E96"/>
<path d="M187.439 166.242C186.527 166.242 185.703 165.614 185.491 164.687C185.245 163.611 185.919 162.538 186.996 162.291C194.191 160.647 193.932 155.953 193.928 155.906C193.848 154.804 194.675 153.845 195.777 153.764C196.883 153.695 197.838 154.511 197.919 155.613C198.125 158.431 196.295 164.269 187.888 166.191C187.737 166.227 187.586 166.242 187.439 166.242Z" fill="#6E6E96"/>
<path d="M177.988 157.29C177.476 157.29 176.965 157.095 176.574 156.704C175.793 155.923 175.793 154.657 176.574 153.876C181.92 148.53 180.589 144.711 180.529 144.551C180.151 143.531 180.648 142.375 181.659 141.975C182.668 141.575 183.807 142.033 184.23 143.036C184.337 143.29 186.769 149.338 179.402 156.705C179.011 157.095 178.499 157.29 177.988 157.29Z" fill="#6E6E96"/>
<path opacity="0.15" d="M143.827 139.859L157.137 153.17C157.137 153.17 149.226 160.391 143.951 155.412C138.676 150.433 133.867 145.624 133.867 145.624L143.827 139.859Z" fill="#6E6E96"/>
<path d="M205.139 25.702C205.863 23.483 208.132 20.757 210.184 19.645L210.193 19.64C212.247 18.528 212.247 16.709 210.193 15.597L210.184 15.592C208.132 14.48 205.746 11.975 204.884 10.025C204.021 8.075 202.609 8.075 201.745 10.025C200.882 11.976 198.497 14.481 196.441 15.592L196.43 15.597C194.376 16.709 194.376 18.528 196.43 19.64L196.441 19.645C198.497 20.757 200.761 23.483 201.486 25.702L202.001 27.269C202.724 29.488 203.9 29.488 204.628 27.269L205.139 25.702Z" fill="#7FE5FF"/>
<path d="M63.4079 17.503C64.4299 14.361 67.6439 10.501 70.5539 8.928L70.5659 8.921C73.4719 7.346 73.4719 4.77 70.5659 3.196L70.5539 3.189C67.6489 1.614 64.2709 -1.932 63.0469 -4.695C61.8259 -7.456 59.8259 -7.456 58.6069 -4.695C57.3859 -1.932 54.0059 1.614 51.1029 3.189L51.0879 3.196C48.1849 4.769 48.1849 7.344 51.0879 8.921L51.1029 8.928C54.0059 10.501 57.2219 14.363 58.2489 17.503L58.9719 19.723C59.9949 22.867 61.6689 22.867 62.6929 19.723L63.4079 17.503Z" fill="#FFB0B8"/>
<path d="M9.88291 98.888C10.4979 97.001 12.4289 94.681 14.1749 93.736L14.1819 93.732C15.9279 92.789 15.9279 91.238 14.1819 90.294L14.1749 90.289C12.4289 89.345 10.3999 87.213 9.66691 85.553C8.93291 83.894 7.72991 83.894 6.99691 85.553C6.26391 87.213 4.23291 89.345 2.48691 90.289L2.47991 90.294C0.73391 91.237 0.73391 92.787 2.47991 93.732L2.48691 93.736C4.23291 94.681 6.16491 97.004 6.77891 98.888L7.21491 100.222C7.82991 102.111 8.83591 102.111 9.44991 100.222L9.88291 98.888Z" fill="#9ADFC0"/>
<path d="M235.261 224.805C236.339 221.498 239.72 217.436 242.782 215.778L242.798 215.772C245.859 214.112 245.859 211.401 242.798 209.75L242.782 209.738C239.72 208.082 236.17 204.346 234.884 201.438C233.598 198.537 231.488 198.537 230.198 201.438C228.919 204.346 225.357 208.082 222.299 209.738L222.286 209.75C219.224 211.401 219.224 214.113 222.286 215.772L222.299 215.778C225.361 217.436 228.741 221.507 229.82 224.805L230.589 227.141C231.661 230.453 233.43 230.453 234.501 227.141L235.261 224.805Z" fill="#DEC2FF"/>
</g>
<defs>
<clipPath id="clip0_6_831">
<rect width="255.975" height="237.578" fill="white"/>
</clipPath>
</defs>
</svg>
